/* XPM */
static char *result[] = {
/* columns rows colors chars-per-pixel */
"32 32 165 2 ",
"   c #0C1B17",
".  c #011E1E",
"X  c #0E1D18",
"o  c #121D1A",
"O  c #03211E",
"+  c #0A231C",
"@  c #12211D",
"#  c #071E23",
"$  c #002222",
"%  c #0A2B24",
"&  c #082826",
"*  c #0D2C2C",
"=  c #132621",
"-  c #1D2222",
";  c #102821",
":  c #1B2924",
">  c #132E2B",
",  c #1C2D2C",
"<  c #0F3329",
"1  c #14352C",
"2  c #17382F",
"3  c #0C2633",
"4  c #0D3131",
"5  c #113333",
"6  c #1A3131",
"7  c #163B31",
"8  c #193C33",
"9  c #183239",
"0  c #153939",
"q  c #1A3C3C",
"w  c #222525",
"e  c #232927",
"r  c #242C2A",
"t  c #2A2A2A",
"y  c #26312D",
"u  c #223333",
"i  c #223D3D",
"p  c #303333",
"a  c #343939",
"s  c #383C3C",
"d  c #1E423A",
"f  c #1E4C3D",
"g  c #21523F",
"h  c #153448",
"j  c #183952",
"k  c #1E4140",
"l  c #234444",
"z  c #294343",
"x  c #264C4B",
"c  c #2B4C4C",
"v  c #3C4141",
"b  c #225544",
"n  c #275A44",
"m  c #2A574A",
"M  c #2A5A4C",
"N  c #275050",
"B  c #2D5453",
"V  c #2D5959",
"C  c #325656",
"Z  c #365957",
"A  c #335C5C",
"S  c #385D5C",
"D  c #2F6253",
"F  c #35615F",
"G  c #39625F",
"H  c #337659",
"J  c #1E4262",
"K  c #214464",
"L  c #274D6B",
"P  c #346565",
"I  c #3B6463",
"U  c #3D6A65",
"Y  c #376A69",
"T  c #3C6C6B",
"R  c #3E7266",
"E  c #3E7171",
"W  c #414242",
"Q  c #4B4D4C",
"!  c #545454",
"~  c #5C5B5B",
"^  c #446666",
"/  c #446D6C",
"(  c #486C6C",
")  c #43736B",
"_  c #48706E",
"`  c #45786C",
"'  c #457371",
"]  c #4B7373",
"[  c #447877",
"{  c #4C7D76",
"}  c #467978",
"|  c #4D7B7B",
" . c #557D7D",
".. c #666464",
"X. c #6B6B6B",
"o. c #727272",
"O. c #7C7C7C",
"+. c #3E8664",
"@. c #3E8A65",
"#. c #408E67",
"$. c #45966F",
"%. c #4E817C",
"&. c #51817B",
"*. c #4BA276",
"=. c #4CA67A",
"-. c #51AF7F",
";. c #36788E",
":. c #366894",
">. c #336699",
",. c #356B9B",
"<. c #3989A9",
"1. c #4E8281",
"2. c #538483",
"3. c #578987",
"4. c #568989",
"5. c #5D8E8C",
"6. c #5F9292",
"7. c #618E8E",
"8. c #728585",
"9. c #649393",
"0. c #699696",
"q. c #679999",
"w. c #6A9A9A",
"e. c #58BC8A",
"r. c #4B91AA",
"t. c #59C08D",
"y. c #61D39A",
"u. c #67DDA2",
"i. c #68DFA4",
"p. c #5EF4AD",
"a. c #5FF4B0",
"s. c #6BE6A8",
"d. c #70EFAF",
"f. c #61F3AD",
"g. c #65F7B1",
"h. c #6AF9B4",
"j. c #71F7B4",
"k. c #77FFBB",
"l. c #58A4CB",
"z. c #47AAD3",
"x. c #4BB1DC",
"c. c #5DB1D6",
"v. c #5EBEE6",
"b. c #55CCFF",
"n. c #60C3EC",
"m. c #65CFF5",
"M. c #64D4FE",
"N. c #828282",
"B. c #818C8C",
"V. c #939393",
"C. c gray60",
"Z. c #A2A2A2",
"A. c #AEAEAE",
"S. c #AFB2B2",
"D. c gray71",
"F. c gray",
"G. c #95DFFF",
"H. c #C2C4C4",
"J. c gray81",
"K. c #D6D6D6",
"L. c gray85",
"P. c #D9F3FF",
"I. c #E5E5E5",
"U. c gray96",
"Y. c #F8FDFF",
/* pixels */
"............................~ W w - p ~ ........................",
"..............U.U.....~ W w r c  .7.^ r ! K.U.U.....U...........",
"....U.U.U.U.U.U.I.C.W , 9 ;.<.z.x.H.S.8.I u ~ K.U.U.U.U.U.U.L.L.",
"..U.U.U.U.I.V.Q u Z | ;.b.b.b.b.b.G.P.Y.B.4.] u ! L.U.U.U.L.L.L.",
"..U.I.V.! u ^ 9.9.0. .x.b.b.b.b.b.b.b.b.r.9.6.0. .u ! D.U.U.L.L.",
"..Q r S 6.9. .^ ^ ^ i :.c.n.M.M.M.m.v.l.L A ] ]  .0. .d v A.L.L.",
"..w d G 0.9.] ^ ^ ^ * K >.>.>.,.,.>.>.>.9 c ^ ^ ^ ^  .9.3.z v F.",
"..r ) M 8 G 0.0.9.7.( & 3 j K K J J h # k  .^ ^ ^  .7.9.( Z h ~ ",
"..X U A ' m 7 I 1.3.5.0.Z C l l l x ^ 7.q.6.q.9.0.( c N P 4.A ! ",
"..  U $ & T b f d S 4.0.] ^ ^ ^ ^ ( w.3.4.%.S x l P 1.| I ^ P ..",
"..@ R $ $ d U b b f 8 S 9.7.] ( 2.7.9.A x x P P | I q 5 5 I P ~ ",
"..@ { $ $ O U R b ) ' M q S 9.7.S z l P P P P Y U 5 5 5 5 G F ~ ",
"..X ` & $ $ O 0 ) x & B %.M 1 x / 4.] 3.P P P  .k 5 5 5 5 I F X.",
"..o M B $ & @.$.< $ $ $ $ ' 8 3.C 0 5 N 4.2.[ x 5 5 5 5 5 A F X.",
"..e b / f u.p.k.j.f $ $ $ ) 8 1.5 5 5 5 x * > n 0 * 5 5 k 4.V X.",
"..o b ^ s.k.p.k.a.i.O $ $ S 7 1.5 5 5 5 7 e.d.k.h.@.> 5 ' P V ..",
"..X b G u.k.p.k.g.k.H $ $ V 2 1.5 5 5 * y.p.k.k.g.k.s.& / P V ~ ",
"..: b I y.k.p.k.p.k.s.& A ` 8 [ ( 5 * +.k.p.k.k.p.k.k.8 [ P V ~ ",
"..y &.5 *.k.p.k.p.k.k.< T b 8 P E | H k.k.g.k.k.p.k.k.d } P N o.",
"..y { $ g k.p.k.f.k.k.7 U b 8 P P ] *.k.k.p.k.k.a.k.k.8 2.E x O.",
"..= &.$ . t.p.k.g.k.k.< R b d P P | =.k.k.p.k.k.g.k.y.* 5 ( A o.",
"..X { $ $ < f.k.p.k.s.% U b 2 P P / *.k.k.g.k.k.g.k.7 5 5 C P o.",
"..X ) $ $ O b -.g.$.% $ F M 8 P E I 9 u.k.g.k.k.g.+.> 5 5 C A o.",
"..X ` B $ 5 Y # + . $ $ & } d T | 5 5 > @.h.k.d.#.* 5 5 5 A P ..",
"..t X m { &.D { B $ $ $ O A 8 2.0 5 5 5 * g M 5 5 5 5 5 5 I P ! ",
"....K.! ; f b b ) 4 $ $ $ U 7 1.5 5 5 5 5 5 B ' 7.h 5 B _ 2.A ..",
"....U.U.A.t 1 b n I $ O $ I 8 &.5 5 5 5 5 5.[ P Y 3.&.} x > s Z.",
"....U.U.U.U.&.r f ) S & $ F 8 1.5 5 5 5 / E P P P x 6 a O.K.L.L.",
"....U.U.U.U.U.L.~ + m &.A I 7 | 5 0 A ' %.P x 6 a N.H.U.K.L.L.L.",
"U.U.U.U.U.U.U.U.L.F.d w M { 7 3.} 3.E x > s O.H.U.U.U.U.U.U.L.L.",
"L.L.L.L.L.U.L.U.U.U.L.V.w 1 1 Y x > a X.J.L.L.U.U.L.L.L.L.L.L.L.",
"U.L.L.L.L.L.L.L.L.L.L.L.L.N.- a X.D.L.L.L.L.L.L.L.L.L.L.L.L.L.L."
};
