/* XPM */
static char *result[] = {
/* columns rows colors chars-per-pixel */
"32 32 175 2 ",
"   c #1E1A11",
".  c #241804",
"X  c #3A2305",
"o  c #3C2C07",
"O  c #281926",
"+  c #281A28",
"@  c #2C1B2B",
"#  c #390938",
"$  c #321030",
"%  c #341B33",
"&  c #321C31",
"*  c #2D2D2D",
"=  c #3B342C",
"-  c #332632",
";  c #323232",
":  c #3B323A",
">  c #3D3C3D",
",  c #46111C",
"<  c #441A1E",
"1  c #402D04",
"2  c #4B2F00",
"3  c #4C2E08",
"4  c #502700",
"5  c #552A00",
"6  c #562D0E",
"7  c #5A2A0A",
"8  c #4B3400",
"9  c #5E201F",
"0  c #5C3418",
"q  c #642D16",
"w  c #682E18",
"e  c #6C2A1F",
"r  c #5D0635",
"t  c #5C0833",
"y  c #40133D",
"u  c #721A2B",
"i  c #701236",
"p  c #731635",
"a  c #7D1E33",
"s  c #403E38",
"d  c #5C4D08",
"f  c #674800",
"g  c #724F01",
"h  c #724E02",
"j  c #725100",
"k  c #775007",
"l  c #795401",
"z  c #7F5800",
"x  c #765712",
"c  c #451541",
"v  c #5F1E58",
"b  c #740347",
"n  c #633861",
"m  c #763A6F",
"M  c #792174",
"N  c #515151",
"B  c #666464",
"V  c #6A6A6A",
"C  c gray46",
"Z  c gray48",
"A  c #7C7C7C",
"S  c #833126",
"D  c #944A04",
"F  c #865E00",
"G  c #865408",
"H  c #906500",
"J  c #9A6A02",
"K  c #9C6D00",
"L  c #817009",
"P  c #917211",
"I  c #A26E03",
"U  c #A77600",
"Y  c #B17C00",
"T  c #B57E01",
"R  c #EA7A00",
"E  c #FF7E00",
"W  c #880C4E",
"Q  c #931649",
"!  c #98015E",
"~  c #9C045F",
"^  c #A0085F",
"/  c #A01753",
"(  c #990061",
")  c #9A0061",
"_  c #9A0260",
"`  c #85027C",
"'  c #A1006F",
"]  c #AC026C",
"[  c #B78100",
"{  c #C18700",
"}  c #C48A00",
"|  c #F78C00",
" . c #DAB400",
".. c #F7A900",
"X. c #FFA800",
"o. c #FFB300",
"O. c #DFC900",
"+. c #EDC300",
"@. c #F0C900",
"#. c #FFCA00",
"$. c #FDE100",
"%. c #FFE200",
"&. c #F2EA00",
"*. c #F5ED00",
"=. c #FEF600",
"-. c #FFF700",
";. c #961494",
":. c #B331AD",
">. c #CD0380",
",. c #D90287",
"<. c #DE028B",
"1. c #E60195",
"2. c #E90291",
"3. c #E80391",
"4. c #E90292",
"5. c #EB0392",
"6. c #F20297",
"7. c #F9039B",
"8. c #FB039C",
"9. c #FF039F",
"0. c #CB08A0",
"q. c #CD01A8",
"w. c #FF1EA5",
"e. c #EF03B0",
"r. c #E703B9",
"t. c #EB06B9",
"y. c #C332BE",
"u. c #FF29A7",
"i. c #FF56B0",
"p. c #FF68B3",
"a. c #E779B6",
"s. c #DF22CC",
"d. c #DC35CE",
"f. c #DA2AD7",
"g. c #E036CA",
"h. c #E321E0",
"j. c #E528E2",
"k. c #E729E4",
"l. c #D049C7",
"z. c #E355D7",
"x. c #848484",
"c. c #8E8E8E",
"v. c gray56",
"b. c gray57",
"n. c #959595",
"m. c #9D9D9D",
"M. c #A0A0A0",
"N. c #A4A4A4",
"B. c gray66",
"V. c #A9A9A9",
"C. c #AAAAAA",
"Z. c gray69",
"A. c #B4B4B4",
"S. c gray",
"D. c #FF8BBA",
"F. c #EC82D8",
"G. c #F3B8D4",
"H. c #C1C1C1",
"J. c gray76",
"K. c gray81",
"L. c #D2D2D2",
"P. c gray83",
"I. c #D7D7D7",
"U. c gray85",
"Y. c #DFDFDF",
"T. c #FFEECE",
"R. c #FEFBD3",
"E. c #FFFFD2",
"W. c gray88",
"Q. c #E7E7E7",
"!. c gray94",
"~. c gray95",
"^. c #F3F3F3",
"/. c #F4F4F4",
"(. c gray96",
/* pixels */
"B B B B B B B B B B B B B B B B B B B B B B B B B B B B B B B B ",
"B B B B B B B (.(.B B B B B B B B (.(.(.(.(.(.(.B B (.B B B B B ",
"B B (.(.(.(.(.(.(.(.(.(.(.(.(.(.(.(.(.(.(.(.(.(.(.(.(.(.(.(.U.U.",
"B (.(.(.(.(.(.(.(.(.(.(.(.(.(.(.(.(.(.(.(.(.(.(.(.(.(.(.(.U.U.U.",
"B (.(.(.(.(.(.(.(.(.(.(.(.(.(.(.(.(.(.(.(.(.(.(.(.(.(.(.(.(.U.U.",
"B (.(.(.(.(.(.(.(.(.(.(.(.(.(.(.(.(.(.(.(.(.(.(.(.(.(.(.(.(.U.U.",
"B (.(.(.(.(.(.(.(.(.(.(.(.(.(.(.(.(.(.(.(.(.(.(.(.(.(.(.(.(.U.U.",
"B (.(.(.(.(.(.(.(.(.(.(.(.(.(.(.(.(.(.(.(.(.(.(.(.(.(.(.(.(.U.U.",
"B B (.(.(.(.(.(.(.(.(.(.(.(.(.!./.(.(.(.(.(.(.(.(.(.(.(.(.(.U.U.",
"B B (.(.(.(.(.(.(.(.(.(.W.V O y & N K.(.(.(.(.(.(.(.(.(.(.(.U.U.",
"B (.(.(.(.(.(.(.(.(.(.C.@ :.j.h.k.y.$ m.(.(.(.(.(.(.(.(.(.(.U.U.",
"B (.(.(.(.(.(.(.(.(.L.% F.G.g.r.e.t.s.# V.(.(.(.(.(.(.(.(.(.(.U.",
"B B (.(.(.(.(.(.(.~.- l.R.E.D.9.9.9.9.q.+ Q.(.(.(.(.(.(.(.(.(.U.",
"B B (.(.(.(.(.(.(.n.M z.E.T.u.9.9.9.9.1.` A (.(.(.(.(.(.(.(.U.U.",
"B (.(.(.(.(.(.(.(.: f.d.p.w.9.9.9.9.9.6.0.* ^.(.(.(.(.(.(.(.U.U.",
"B B (.(.(.(.(.(.Y.c ;.a.i.9.9.] 5.9.9.4.' n S.(.(.(.(.(.(.(.(.U.",
"B B (.(.(.(.(.(.M.v l ^ i <.8.G ~ 2.p Q q m c.(.(.(.(.(.(.(.(.U.",
"B (.(.(.(.(.(.(.b.f X b { S 7.w ] a Y , 9 3 Z (.(.(.(.(.(.(.U.U.",
"B (.(.(.(.(.(.(.m.K ! >.[ T ,.9.3.I } ) ( j x.(.(.(.(.(.(.(.U.U.",
"B (.(.(.(.(.(.(.P.. < / e U _ x W J 6 u 7   S.(.(.(.(.(.(.(.U.U.",
"B (.(.(.(.(.(.(.(.> k O.0 t P =.L r g | D ; (.(.(.(.(.(.(.(.U.U.",
"B B (.(.(.(.(.(.(.H.o @.*.d &.-.+.h X.E 4 Z.(.(.(.(.(.(.(.(.U.U.",
"B B (.(.(.(.(.(.(.(.v.1  .$.%.#.o...R 5 C (.(.(.(.(.(.(.(.(.(.U.",
"B B (.(.(.(.(.(.(.(.(.J.s 8 z H F 2 = B.(.(.(.(.(.(.(.(.(.(.(.U.",
"B B (.(.(.(.(.(.(.(.(.(.(.U.A.N.V.I.(.(.(.(.(.(.(.(.(.(.(.(.(.U.",
"B B (.(.(.(.(.(.(.(.(.(.(.(.(.(.(.(.(.(.(.(.(.(.(.(.(.(.(.(.(.U.",
"B B (.(.(.(.(.(.(.(.(.(.(.(.(.(.(.(.(.(.(.(.(.(.(.(.(.(.(.(.(.U.",
"B B (.(.(.(.(.(.(.(.(.(.(.(.(.(.(.(.(.(.(.(.(.(.(.(.(.(.(.(.U.U.",
"B B (.(.(.(.(.(.(.(.(.(.(.(.(.(.(.(.(.(.(.(.(.(.(.(.(.(.U.U.U.U.",
"(.(.(.(.(.(.(.(.U.U.(.(.(.(.(.(.(.(.(.(.(.(.(.(.(.(.(.(.(.(.U.U.",
"U.U.U.U.U.(.U.(.(.(.U.U.(.(.U.U.U.U.U.U.(.U.U.(.(.U.U.U.U.U.U.U.",
"(.U.U.U.U.U.U.U.U.U.U.U.U.U.U.U.U.U.U.U.U.U.U.U.U.U.U.U.U.U.U.U."
};
