/* XPM */
static char *result[] = {
/* columns rows colors chars-per-pixel */
"96 32 3 1 ",
"  c #113333",
". c #487D79",
"X c #77FFBB",
/* pixels */
"................................................................................................",
"................................................................................................",
"................................................................................................",
".....                                                                                      .....",
".....                                                                                      .....",
".....                                                                                      .....",
".....                                                                                      .....",
".....                                                                                      .....",
".....                                                                                      .....",
".....                                                                                      .....",
".....                                                                                      .....",
".....                                                                                      .....",
".....                                                                                      .....",
".....                                                                                      .....",
".....                                                                                      .....",
".....                                                                                      .....",
".....                                                                                      .....",
".....                                                                                      .....",
".....                                                                                      .....",
".....                                                                                      .....",
".....                                                                                      .....",
".....                                                                                      .....",
".....                                                                                      .....",
".....                                                                                      .....",
"XXXXXXXXXXXXXXXXXXXXXXXXXXXXXXXXXXXXXXXXXXXXXXXXXXXXXXXXXXXXXXXXXXXXXXXXXXXXXXXXXXXXXXXXXXXXXXXX",
"................................................................................................",
"................................................................................................",
"................................................................................................",
"................................................................................................",
"................................................................................................",
"................................................................................................",
"................................................................................................"
};
