/* XPM */
static char *result[] = {
/* columns rows colors chars-per-pixel */
"34 32 170 2 ",
"   c #280079",
".  c #666464",
"X  c #666669",
"o  c #2E0281",
"O  c #310385",
"+  c #34048B",
"@  c #39068C",
"#  c #3A0888",
"$  c #370591",
"%  c #3A0595",
"&  c #3F0991",
"*  c #3D069B",
"=  c #3E0899",
"-  c #40079C",
";  c #450B9A",
":  c #490C9F",
">  c #4E1098",
",  c #4207A3",
"<  c #4208A3",
"1  c #4C0DA2",
"2  c #4707AA",
"3  c #4708A9",
"4  c #4908AC",
"5  c #540FAE",
"6  c #5010A0",
"7  c #5411A8",
"8  c #5B14A9",
"9  c #4D08B3",
"0  c #520BB5",
"q  c #590EB5",
"w  c #5309BA",
"e  c #590CBF",
"r  c #5D14B1",
"t  c #5E13B8",
"y  c #6115B8",
"u  c #681BB9",
"i  c #5C23A9",
"p  c #6723B8",
"a  c #7420B8",
"s  c #5C0CC4",
"d  c #630ECB",
"f  c #6414C4",
"g  c #6B17C6",
"h  c #6511CC",
"j  c #6812CE",
"k  c #6E19C8",
"l  c #6C1AC0",
"z  c #721CC8",
"x  c #6A11D2",
"c  c #7115D6",
"v  c #731BD5",
"b  c #7A1DD3",
"n  c #7414DC",
"m  c #7917DE",
"M  c #7C1ED8",
"N  c #772BC9",
"B  c #7929C3",
"V  c #7A16E2",
"C  c #7D18E4",
"Z  c #8427C8",
"A  c #8927D5",
"S  c #8E2BD0",
"D  c #8D28D8",
"F  c #8329D6",
"G  c #942CD8",
"H  c #982ED8",
"J  c #8034D6",
"K  c #8837DD",
"L  c #9135DF",
"P  c #9A30D8",
"I  c #801AE6",
"U  c #881FE4",
"Y  c #821AE9",
"T  c #8A1EED",
"R  c #8E25E3",
"E  c #8E24EB",
"W  c #9427E7",
"Q  c #9229E0",
"!  c #9B2FE0",
"~  c #9325EE",
"^  c #9C2CEA",
"/  c #8C37E3",
"(  c #9C30E0",
")  c #8E21F1",
"_  c #9425F2",
"`  c #9C2AF4",
"'  c #9832F1",
"]  c #9531F1",
"[  c #A130EA",
"{  c #AD38E8",
"}  c #A22EF4",
"|  c #A22EF8",
" . c #A530F3",
".. c #AC34F5",
"X. c #AE35F8",
"o. c #A23DF8",
"O. c #B036F5",
"+. c #B43AF3",
"@. c #B137F8",
"#. c #B53AF8",
"$. c #BB3DF8",
"%. c #B93DF6",
"&. c #824EC4",
"*. c #9E5DDF",
"=. c #9A62D7",
"-. c #8C48E0",
";. c #9542E4",
":. c #9E46F0",
">. c #A344EF",
",. c #A25CE5",
"<. c #AC5EEF",
"1. c #A444F6",
"2. c #B543F7",
"3. c #B049F7",
"4. c #B041F8",
"5. c #BC49F8",
"6. c #AA50F7",
"7. c #B756F1",
"8. c #BC50F7",
"9. c #B55FF7",
"0. c #A067E4",
"q. c #A867EB",
"w. c #B865EE",
"e. c #AB61F4",
"r. c #B467F7",
"t. c #B66DF7",
"y. c #B979F4",
"u. c #C14AF7",
"i. c #C040F8",
"p. c #C363F7",
"a. c #CC6DF7",
"s. c #C27CF7",
"d. c #C878F6",
"f. c #BB92EC",
"g. c #BE81F5",
"h. c #BD89F4",
"j. c #CDBADE",
"k. c #CC98E6",
"l. c #C09AE4",
"z. c #C286F6",
"x. c #C28CF5",
"c. c #C397F0",
"v. c #CB9BF5",
"b. c #D398F5",
"n. c #C8A3EE",
"m. c #D3B3E0",
"M. c #CDA5F5",
"N. c #CCAEF3",
"B. c #D1ABF5",
"V. c #D9ACF5",
"C. c #D5BCF3",
"Z. c #D9BFF4",
"A. c #CDC4D9",
"S. c #D3CDDB",
"D. c #D1C5DC",
"F. c #D7D8D9",
"G. c #D9D9D9",
"H. c #DFC5F5",
"J. c #DDCBF4",
"K. c #E5C6F5",
"L. c #E5CCF5",
"P. c #E4D2F5",
"I. c #EBDDF5",
"U. c #E7E3F3",
"Y. c #EDE7F5",
"T. c #EEE8F5",
"R. c #F0E9F5",
"E. c #EFF2F4",
"W. c #F5F5F5",
"Q. c None",
/* pixels */
"Q.. . . . . . . . . . . . . . . . . . . . . . . . . . . . . . . . Q.",
"Q.. . . . . . . W.W.. . . . . X X X W.W.W.W.W.W.W.. . W.. . . . . Q.",
"Q.. . W.W.W.W.W.W.W.W.W.W.Y.P.C.e.N.h.C.K.W.W.W.W.W.W.W.W.W.W.G.G.Q.",
"Q.. W.W.W.W.W.W.W.W.W.I.g.0.N y f s E +.u.p.x.M.Y.W.W.W.W.W.G.G.G.Q.",
"Q.. W.W.W.W.W.W.W.T.M.8.[ 8   % , 9 s V ) #.^ g f.U.W.W.W.W.W.G.G.Q.",
"Q.. W.W.W.W.W.W.M.t.} #.i.%.y @ * 4 w x Y @.+.; 1 J c.W.W.W.W.G.G.Q.",
"Q.. W.W.W.W.W.J.-.V C Y ~ $.^ O + * w x C | 5.u   7 v x.W.W.W.G.G.Q.",
"Q.. W.W.W.W.M.E x x x m Y ^ $.z   , 9 d V ^ i.a O - h I Z.W.W.G.G.Q.",
"Q.. . W.W.P.F 4 3 9 s h n C ` $.; + 9 s V | +.: % 2 s V ] K.W.G.G.Q.",
"Q.. . W.R.N.< O = = 4 w s n Y X.k + 4 s V  .S   , 9 d V T a.W.G.G.Q.",
"Q.. W.W.B.u   ; #   o < 9 w c E g O 4 d I R 1 + 2 s x C ` 2.v.G.G.Q.",
"Q.. W.W.r.W H $.{ P r = $ 2 s V c % 4 d m v O 2 s d V C i.5.1.T.G.Q.",
"Q.. . I.p.$.$.O.@.@.| A : o < s c % 9 d Y 5 , 9 d V I } i.H p Y.G.Q.",
"Q.. . K.$.` T Y Y Y T Y T m % * w + 9 x 1 % 9 d V Y } i.! ; @ l.G.Q.",
"Q.. W.b.O.V n n x c x n x n d * % O - 2 + 9 s I ` @...z O   = ,.G.Q.",
"Q.. . s.R d s w e w 9 4 w 9 9 2 o o o O 9 d V ) f M ;   + - 3 :.D.Q.",
"Q.. . v.j 9 9 2 * 2 % - % = % o O     = - - % O   + o % < 2 w ,.G.Q.",
"Q.. W.q.4 2 * % o o & : 3 w 4 +     o % 2 2 4 , 4 2 9 9 w w h <.G.Q.",
"Q.. R.y.q % o O 7 Q | ) n e , O % O O , e s w s w e s s d x W r.G.Q.",
"Q.. W.z.t o r Q #...~ m s 3 % s 4 + 2 % 0 x n V V n n n V I ..k.G.Q.",
"Q.. W.P.i ; %.i.` Y n s 9 : x x 9 o s 2 % r v ~ _ ` ) _ } X.$.m.G.Q.",
"Q.. . W.,.S 5.} Y V s 9 = ; T s 9 + x x 2 * + 8 } #.i.$.i.%.2.S.G.Q.",
"Q.. . W.z.#.@.Y V d w , O M Y d 9 o e Y d 9 2 % @ # B G Z r t.W.G.Q.",
"Q.. . W.I.5._ C d s 2 $ u  .V d 2 $ : ` C d w 4 % O o   @ N K.W.G.Q.",
"Q.. . W.W.H._ V j 2 - O ( | Y d 9 % y $._ V x d 9 , , , < B.W.W.G.Q.",
"Q.. . W.W.W.1.n s 3 O # i. .V d 9 %   H O.Y m x d s w 2 o.P.W.W.G.Q.",
"Q.. . W.W.W.W.6.x < O 8 i. .V x w , O : #...Y I m c v o.P.W.W.W.G.Q.",
"Q.. . W.W.W.W.I.r.f O : i...Y x s 2 *   A $.O.~ Y T h.L.W.W.W.G.G.Q.",
"Q.. . W.W.W.W.W.P.z.&.# ^ $.T c w 9 * O 1 D 2.#.3.d.P.W.W.G.G.G.G.Q.",
"Q.W.W.W.W.W.W.W.W.G.A.=.>.$...E x e 4 * @ # L r.P.W.W.W.W.W.W.G.G.Q.",
"Q.G.G.G.G.G.W.G.W.W.W.G.j.V.a.7.] / h K ;.n.j.G.W.W.G.G.G.G.G.G.G.Q.",
"Q.W.G.G.G.G.G.G.G.G.G.G.G.G.G.S.S.S.A.S.S.G.G.G.G.G.G.G.G.G.G.G.G.Q."
};
