/* XPM */
static char *result[] = {
/* columns rows colors chars-per-pixel */
"32 32 204 2 ",
"   c #666464",
".  c #686E63",
"X  c #019600",
"o  c #059A01",
"O  c #0A9D03",
"+  c #0CA103",
"@  c #10A604",
"#  c #1CAD05",
"$  c #15A808",
"%  c #1CAD0C",
"&  c #1CB105",
"*  c #1BA412",
"=  c #22B506",
"-  c #2ABF07",
";  c #25B108",
":  c #28B408",
">  c #2CBC0A",
",  c #31B00B",
"<  c #33BC0C",
"1  c #26AB1B",
"2  c #27B512",
"3  c #2AB317",
"4  c #2BBB15",
"5  c #35BB17",
"6  c #35983A",
"7  c #3A9C3D",
"8  c #36AF2D",
"9  c #45BB10",
"0  c #40AF30",
"q  c #4ABA37",
"w  c #2DC107",
"e  c #2DC209",
"r  c #33C40B",
"t  c #38C30B",
"y  c #34CA09",
"u  c #39CE0A",
"i  c #3DD30B",
"p  c #38C814",
"a  c #35C419",
"s  c #3AC51B",
"d  c #3CCA1C",
"f  c #41C70E",
"g  c #43CB0E",
"h  c #41D40C",
"j  c #4BD20F",
"k  c #44DA0C",
"l  c #4CDC0E",
"z  c #50DE0F",
"x  c #43CA13",
"c  c #4CCF11",
"v  c #46C61C",
"b  c #48C719",
"n  c #4CCA1C",
"m  c #54CB18",
"M  c #4DD312",
"N  c #48D51C",
"B  c #52D213",
"V  c #5AD515",
"C  c #56D418",
"Z  c #57DA18",
"A  c #61D616",
"S  c #63D817",
"D  c #6BDB19",
"F  c #77DD1C",
"G  c #4CE20D",
"H  c #51E60E",
"J  c #54EA0F",
"K  c #4EE210",
"L  c #52E614",
"P  c #57EB12",
"I  c #5BE817",
"U  c #54E21D",
"Y  c #5CEE19",
"T  c #5EF01C",
"R  c #66EB19",
"E  c #76E61D",
"W  c #60F11D",
"Q  c #48CC26",
"!  c #52CE29",
"~  c #46D221",
"^  c #4DD824",
"/  c #55D424",
"(  c #57DB26",
")  c #4EC633",
"_  c #53C935",
"`  c #5CD03C",
"'  c #64D52C",
"]  c #64DC28",
"[  c #72DB23",
"{  c #66D836",
"}  c #6BD539",
"|  c #5DE423",
" . c #59E32A",
".. c #5FE82C",
"X. c #64E527",
"o. c #69E22B",
"O. c #64E92B",
"+. c #69EB2C",
"@. c #7BE524",
"#. c #64F323",
"$. c #69F529",
"%. c #6EF92E",
"&. c #6AE532",
"*. c #65EE30",
"=. c #77E537",
"-. c #6BF332",
";. c #74FB36",
":. c #72F43A",
">. c #77FE39",
",. c #78FE39",
"<. c #318B41",
"1. c #6D9359",
"2. c #53BB48",
"3. c #73A759",
"4. c #6ED846",
"5. c #73D749",
"6. c #7BDB4C",
"7. c #66C457",
"8. c #7CDA52",
"9. c #7BEC44",
"0. c #7AE64B",
"q. c #79CD6E",
"w. c #76C375",
"e. c #84E41F",
"r. c #87E81F",
"t. c #81DB20",
"y. c #85E423",
"u. c #8FE625",
"i. c #89E42A",
"p. c #91EE36",
"a. c #88F233",
"s. c #A7F432",
"d. c #AEF339",
"f. c #86DD5A",
"g. c #8BE847",
"h. c #93E54A",
"j. c #82F44C",
"k. c #83F94A",
"l. c #84E757",
"z. c #90E05A",
"x. c #88F754",
"c. c #8BF558",
"v. c #8FF85D",
"b. c #93F75F",
"n. c #ADF04B",
"m. c #B4F748",
"M. c #A3EB5A",
"N. c #ACFB51",
"B. c #89DC63",
"V. c #8DDE69",
"C. c #91DE6E",
"Z. c #96DE72",
"A. c #8CE467",
"S. c #9CE364",
"D. c #93EB67",
"F. c #92EB69",
"G. c #8FF361",
"H. c #95F867",
"J. c #9CE273",
"K. c #9CEA79",
"L. c #9EEC79",
"P. c #99F072",
"I. c #9EF874",
"U. c #B0EF6F",
"Y. c #ADEA77",
"T. c #B3EA73",
"R. c #A6F876",
"E. c #A4F77E",
"W. c #C8FD56",
"Q. c #C0F763",
"!. c #CEFE63",
"~. c #A1DD94",
"^. c #A4EB83",
"/. c #A8EC88",
"(. c #B4E98D",
"). c #A5F580",
"_. c #ABF886",
"`. c #B0F78F",
"'. c #B4E799",
"]. c #AFF190",
"[. c #B4F795",
"{. c #B9F79C",
"}. c #B7F899",
"|. c #B6E6A2",
" X c #BFF7A5",
".X c #C2EE8C",
"XX c #DBFB98",
"oX c #C5EBAF",
"OX c #CDF7A8",
"+X c #C3E1B5",
"@X c #C9F7B2",
"#X c #C8F1B5",
"$X c #D0F6BE",
"%X c #CDDDC5",
"&X c gray85",
"*X c #D8F4C3",
"=X c #DBF6CD",
"-X c #DAEED1",
";X c #DDF6D2",
":X c #E5F6DD",
">X c #E5F4E0",
",X c #EBF5E6",
"<X c #EEF5EA",
"1X c #F5F5F5",
/* pixels */
"                                                                ",
"              1X1X        . 3.5.9.E.:X1X1X1X1X1X    1X          ",
"    1X1X1X1X1X1X1X1X*XE.j.&.L.o.Z +.`.@X1X1X1X1X1X1X1X1X1X1X&X&X",
"  1X1X1X1X1X1X1X,XI.+.C B A.u.S.Y.V ] 0.H.$X1X1X1X1X1X1X1X&X&X&X",
"  1X1X1X1X1X1X=XG.#XJ.C B V.B B V i.s.Q.s.&.9.{.{.>X1X1X1X1X&X&X",
"  1X1X1X1X1X@X&./.6.z.f.[ A c j M j } M.s.OX@.M ^.j.:X1X1X1X&X&X",
"  1X1X1X1X{.K.T.t.i.r.M.b ; f j r > f.X.R y.u.i.M 5.j.:X1X1X&X&X",
"  1X1X1X@XX.S.g.r.n.E g o + h ; X w i l h - V n.V M |.H.<X1X&X&X",
"    1X,Xb.oXT.t., , + X X X X + & O o & i w w C h.p.} +.{.1X&X&X",
"    1X{.h.t.d.9 O X 4 / -.;.) Q N K u y i h = l D R D C H.1X&X&X",
"  1X1Xg.D F S.9 & y #.$.:.2.` <.6 6 6 ` A.# u & A r.@.} P.>X&X&X",
"  1X;XK.' A S t e P P Y :.,.:.! 0 8 7 ( >X- w y > R .X8.A. X1X&X",
"     X6.c B m k p >.P ;.>.>.,.,.,.O.( >.H._ @ G O > *XC.K.).1X&X",
"    D.c ' c S k @ ;.%.,.>.;... .*.,.a s ;...@ G O o D.B 0.I.&X&X",
"  1X=.c -X] L u % ,.,.>.~ O X O 4 >.;.O ;.;.w J r 1 v n A.I.&X&X",
"  1.&.` c M # e ~ ,.,.^ 4 ^ d ^ $ *.-.X P Y G J y 7.x S M G.1X&X",
"  1.P..Xl > @ i p >.>.2 -.~ ~ s d ,.a @ Y J J H j Z 0.g.} k.<X&X",
"  =XX.h.l # & H e ;.,.2 ;.s ..-.;.d % 4 ;.P J z f J oXg.[ E.'.&X",
"  1X0.T.F.; u P r W ;.a *...% o $ d $ :.,.$.z g & J Y ^.*X).+X&X",
"  1X`.S &./ G H u -.T ..d ,. .:.;. .*.>.,.U < r h ].).<X$X}.&X&X",
"  1X=XD.oXc.Z P H d %.;.*.~  .,.-.| %.;...w P H /.=.q.Z.l.<X&X&X",
"    <XR.XXM.4.K P k G W ;.;.$ + $ N %.K & J G G ! < * C [.1X&X&X",
"    <Xp.!.W.v ~.G J J J T #.#.P J -.k y G y G i 8 q B.6.E.1X1X&X",
"  . 1Xa.d.W.p.3 r i J J K y e # % ^ G w & H G + 2.Z.i.&.[.1X1X&X",
"    1Xv.=.!.m.{ : f = i J G l e 2 ! u g h q.O O f F (.-.:X1X1X&X",
"    1X;Xv.P.W.E 8.5.g ; + ! I L l / 5 # + $ 3.% h.C.X.[.1X1X1X&X",
"    1X1X:X9.U.W.h.' f.3 + > p r k 5 n t ) g n } e.g.v.1X1X1X1X&X",
"    1X1X1X>X_.N.W.m.m.M |.O 5.' z z M o w.{ C.oXJ.x.:X1X1X1X&X&X",
"    1X1X1X1X1X[.,.k.a.C b * 5 c c c : X 2.A.V.D.E.,X1X1X&X&X&X&X",
"1X1X1X1X1X1X1X1X%XL.H.x.+.l.q f < % 5 N ( X.c.*X1X1X1X1X1X1X&X&X",
"&X&X&X&X&X1X&X1X1X1X&X&X:X`.G.c.c.L././.{.+X&X1X1X&X&X&X&X&X&X&X",
"1X&X&X&X&X&X&X&X&X&X&X&X&X&X&X&X&X&X&X&X&X&X&X&X&X&X&X&X&X&X&X&X"
};
