/* XPM */
static char *result[] = {
/* columns rows colors chars-per-pixel */
"32 32 119 2 ",
"   c #020202",
".  c #0A0504",
"X  c #0C0A06",
"o  c #0B0B0B",
"O  c #16120C",
"+  c #1B140D",
"@  c #090F16",
"#  c #0A121B",
"$  c #141414",
"%  c #1F1710",
"&  c #1C1C1C",
"*  c #24140C",
"=  c #261B13",
"-  c #2C1C12",
";  c #351D13",
":  c #3A1F14",
">  c #24240F",
",  c #352217",
"<  c #3C2215",
"1  c #34291B",
"2  c #383818",
"3  c #0E1823",
"4  c #141B21",
"5  c #12212F",
"6  c #162637",
"7  c #162638",
"8  c #17283A",
"9  c #242424",
"0  c #27292C",
"q  c #2E2E2E",
"w  c #262C35",
"e  c #323232",
"r  c #3C3C3C",
"t  c #402216",
"y  c #482719",
"u  c #4A2819",
"i  c #422F20",
"p  c #443324",
"a  c #493726",
"s  c #4E3B2A",
"d  c #5F3320",
"f  c #533D2A",
"g  c #423F3D",
"h  c #633622",
"j  c #6D3B25",
"k  c #733E27",
"l  c #753F28",
"z  c #47471E",
"x  c #4E4E21",
"c  c #57422E",
"v  c #5E5E27",
"b  c #5D4A38",
"n  c #764028",
"m  c #7B432A",
"M  c #634B35",
"N  c #684F37",
"B  c #6A513B",
"V  c #72563C",
"C  c #65652A",
"Z  c #6F6F2F",
"A  c #1A2C41",
"S  c #1F354D",
"D  c #20374F",
"F  c #274363",
"G  c #284464",
"H  c #424242",
"J  c gray30",
"K  c #545453",
"L  c #5B5B5B",
"P  c #7E5E42",
"I  c #605E5E",
"U  c #666464",
"Y  c #696969",
"T  c #727272",
"R  c #7D7D7D",
"E  c #81462C",
"W  c #846346",
"Q  c #8A6849",
"!  c #95704F",
"~  c #9C7652",
"^  c #A47C57",
"/  c #8A8A3B",
"(  c #B4885F",
")  c #AFAF4A",
"_  c #B68960",
"`  c #BD8E64",
"'  c #C09165",
"]  c #C9976B",
"[  c #D39F70",
"{  c #D9A474",
"}  c #DFA876",
"|  c #E4AC78",
" . c #E8AF7B",
".. c #ECB27D",
"X. c #CCCC56",
"o. c #D9D95C",
"O. c #E2E260",
"+. c #F3F367",
"@. c #FEFE6C",
"#. c #848484",
"$. c #8C8C8C",
"%. c #929292",
"&. c #9D9D9D",
"*. c gray64",
"=. c #AFAFAF",
"-. c #B4B4B4",
";. c #BABABA",
":. c #F2B681",
">. c #F5B882",
",. c #FDBE86",
"<. c #FFC087",
"1. c #C4C4C4",
"2. c #CCCCCC",
"3. c gray83",
"4. c #D9D9D9",
"5. c #E4E4E4",
"6. c #ECECEC",
"7. c #F5F5F5",
"8. c #FDFDFD",
/* pixels */
"U U U U U U U U U U U U U U U U U U U U U U U U U U U U U U U U ",
"U U U U U U U 7.7.U U U U U Y L L 6.7.7.7.7.7.7.U U 7.U U U U U ",
"U U 7.7.7.7.7.7.7.7.7.7.2.I = O   $ $ 4 g R 2.7.7.7.7.7.7.7.4.4.",
"U 7.7.7.7.7.7.7.7.7.6.D . * d n k k k h t +   #.7.7.7.7.7.4.4.4.",
"U 7.7.7.7.7.7.7.7.;.$ * k E E E E E E E E E h . $.7.7.7.7.7.4.4.",
"U 7.7.7.7.7.7.7.5.& < m E E E E E E E E E E E u = 6.7.7.7.7.4.4.",
"U 7.7.7.7.7.7.7.r * E E E E E E E E E E E E E y $ 6.7.7.7.7.4.4.",
"U 7.7.7.7.7.7.1.  j E E E E E E E j : , i f f X J 7.7.7.7.7.4.4.",
"U U 7.7.7.7.7.K : E E E E E m h - s { <.<.<.,.( @ 1.7.7.7.7.4.4.",
"U U 7.7.7.7.6.O d E E E E k < V { <.<.<.<.<.<.,.M r 7.7.7.7.4.4.",
"U 7.7.7.7.7.4.  l E E E E - ` <.<.<.<.<.>.` ! M = . 2.7.7.7.4.4.",
"U 7.7.7.7.7.;.  m E E E < ~ ,.<.<.<.<.<.a L -.-.K   #.7.7.7.7.4.",
"U U 7.7.7.7.;.. m m E h a ,.<.<.<.<.<.>.g 8.8.8.7.r T 7.7.7.7.4.",
"U U 7.7.7.7.2.  l E E = | ,.<.,.<.<.<.} U 8.8.6.9 9 K 7.7.7.4.4.",
"U 7.7.7.7.7.7.  h E u ! { s f { <.<.<.>.g 8.8.8.&.e $ 6.7.7.4.4.",
"U U 7.7.7.7.7.K ; m = >.M [ ..:.<.<.<.<.B #.7.5.#.c + ;.7.7.7.4.",
"U Y 7.7.7.7.7.2.o ; N <.B _ :...<.<.<.<.<.~ b B p   0 4.7.7.7.4.",
"U 7.7.7.7.7.7.7.R $ N <...M c ] <.<.<.<.<.<.<.} O $.7.7.7.7.4.4.",
"U 7.7.7.7.7.7.7.7.1.  P <.<.<.<.<.<.<.<...a % + e 7.7.7.7.7.4.4.",
"U 7.7.7.7.7.7.7.7.7.2.& p ' >.<.<.<.<.<. .W = K 5.7.7.7.7.7.4.4.",
"U 7.7.7.7.7.7.7.7.7.7.-.  > 2 M Q Q P p + o %.6.7.8.7.7.7.7.4.4.",
"U U 7.7.7.7.7.7.7.7.7.$.  ) @.O./ x o.+.Z L 7.7.7.7.7.7.7.7.4.4.",
"U U 7.7.7.7.7.7.7.7.7.L 2 + C o.x O.@.@.C L 7.7.7.7.7.7.7.7.7.4.",
"U U 7.7.7.7.7.7.7.7.7.L O ~ 1 . v X.X.X.z o T 7.7.7.7.7.7.7.7.4.",
"U U 7.7.7.7.7.7.7.7.7.J X ^   6 7 7 6 6 + + K 7.7.7.7.7.7.7.7.4.",
"U U 7.7.7.7.7.7.7.7.5.o ! B # # A G G G $ O R 7.7.7.7.7.7.7.7.4.",
"U U 7.7.7.7.7.7.7.7.Y & H o 8 D   S G G 3 q 3.7.7.7.7.7.7.7.7.4.",
"U U 7.7.7.7.7.7.7.7.Y & *.#.w   $ # F F 5 o q 4.7.7.7.7.7.7.4.4.",
"U U 7.7.7.7.7.7.7.7.7.&.o J #.o $.  4 0 $.*.  =.7.7.7.7.4.4.4.4.",
"7.7.7.7.7.7.7.7.4.4.7.7.2.Y H q 3.R r ;.#.& U 7.7.7.7.7.7.7.4.4.",
"4.4.4.4.4.7.4.7.7.7.4.4.7.7.4.4.4.;.$ & r %.4.7.7.4.4.4.4.4.4.4.",
"7.4.4.4.4.4.4.4.4.4.4.4.4.4.4.4.4.4.;.-.4.4.4.4.4.4.4.4.4.4.4.4."
};
