/* XPM */
static char *result[] = {
/* columns rows colors chars-per-pixel */
"32 32 124 2 ",
"   c #040303",
".  c #090605",
"X  c #0E0C06",
"o  c #04070A",
"O  c #0C0B0A",
"+  c #100F0E",
"@  c #1B0E09",
"#  c #101007",
"$  c #15120C",
"%  c #1A130C",
"&  c #0A0E13",
"*  c #0B121A",
"=  c #141414",
"-  c #1D1711",
";  c #1C1C1C",
":  c #2C180F",
">  c #211912",
",  c #2C1B12",
"<  c #321B11",
"1  c #391F14",
"2  c #262610",
"3  c #2B2017",
"4  c #352217",
"5  c #3B2316",
"6  c #312918",
"7  c #3B2C1F",
"8  c #0D1621",
"9  c #171C24",
"0  c #152434",
"q  c #162638",
"w  c #232323",
"e  c #20252C",
"r  c #2E2E2E",
"t  c #302E2D",
"y  c #333232",
"u  c #3A3A3A",
"i  c #422417",
"p  c #4C291A",
"a  c #572F1E",
"s  c #582F1E",
"d  c #443223",
"f  c #4E3A29",
"g  c #523D2A",
"h  c #633522",
"j  c #6A3924",
"k  c #723E27",
"l  c #42421C",
"z  c #56422F",
"x  c #545424",
"c  c #5E4632",
"v  c #764028",
"b  c #7C432A",
"n  c #634B35",
"m  c #614E3C",
"M  c #684F38",
"N  c #6F533B",
"B  c #71563C",
"V  c #785A3F",
"C  c #69682D",
"Z  c #7D7D35",
"A  c #1A2D41",
"S  c #1F354E",
"D  c #284464",
"F  c #424242",
"G  c #45474A",
"H  c #4D4D4D",
"J  c #53504D",
"K  c #555555",
"L  c #595757",
"P  c #5A5A5A",
"I  c #7B5D41",
"U  c #666464",
"Y  c #686666",
"T  c #6A6A6A",
"R  c #767676",
"E  c #7C7C7C",
"W  c #81462C",
"Q  c #846346",
"!  c #8B6849",
"~  c #926E4D",
"^  c #96714F",
"/  c #9C7653",
"(  c #A77E58",
")  c #89893A",
"_  c #B2865F",
"`  c #AEAE4A",
"'  c #B5B54D",
"]  c #BC8D63",
"[  c #BF9065",
"{  c #C19267",
"}  c #D09D6E",
"|  c #D29E70",
" . c #D7A272",
".. c #DBA574",
"X. c #E1A977",
"o. c #E5AC7A",
"O. c #ECB27D",
"+. c #F0B57F",
"@. c #CDCD56",
"#. c #D4D45A",
"$. c #E1E160",
"%. c #E9E963",
"&. c #F3F367",
"*. c #FFFF6C",
"=. c #868686",
"-. c #8B8B8B",
";. c #939393",
":. c #9B9B9B",
">. c #A0A0A0",
",. c #AEAEAE",
"<. c #B6B6B6",
"1. c #BABABA",
"2. c #F3B781",
"3. c #F5B982",
"4. c #FDBE86",
"5. c #FFC087",
"6. c #C5C5C5",
"7. c #CCCCCC",
"8. c #D3D3D3",
"9. c #D9D9D9",
"0. c #E3E3E3",
"q. c #ECECEC",
"w. c #F5F5F5",
"e. c #FEFEFE",
/* pixels */
"U U U U U U U U U U U U U U U U U Y U U Y Y U U U U U U U U U U ",
"U U U U U U U w.w.U U U Y Y Y L U q.w.w.w.w.w.w.U U w.Y U U U U ",
"U U w.w.w.w.w.w.w.6./ u 9 - = O + w P 7.q.w.w.w.w.w.w.w.w.w.9.9.",
"U w.w.w.w.w.w.w.-.o * i a g h j j s @   L 0.w.w.w.w.w.w.w.9.9.9.",
"Y w.w.w.w.w.w.-.. h W W W W W W W W W k : w 1.w.w.w.w.w.w.w.9.9.",
"U w.w.w.w.w.q.w p W W W W W W W W W W W k i ; q.w.w.w.w.w.w.9.9.",
"U w.w.w.w.w.0.= p W W W W W W W W W W W W W @ F w.w.w.w.w.w.9.9.",
"U w.w.w.w.w.w.H X g f d 4 1 j W W W W W W W j O <.w.w.w.w.w.9.9.",
"U U w.w.w.w.7.$ ( 5.5.5.5.{ f , j W W W W W W < P w.w.w.w.w.9.9.",
"U Y w.w.w.w.u M 4.5.5.5.5.5.5.X.I 5 k W W W W h w w.w.w.w.w.9.9.",
"U w.w.w.w.7.  7 c ^ [ +.5.5.5.5.4._ , W W W W k = 0.w.w.w.w.9.9.",
"U w.w.w.w.=.. G <.<.U g 5.5.5.5.4.4./ i W W W v . 9.w.w.w.w.w.9.",
"U U w.w.w.T u w.e.e.e.r 4.4.5.5.4.5.5.d j b W b . 9.w.w.w.w.w.9.",
"U U w.w.w.L r F w.e.e.H X.4.5.5.5.5.5.} 1 k W v . 9.w.w.w.w.9.9.",
"U w.w.w.q.= t >.e.e.e.y +.5.5.5.| f f  .~ a W h ; w.w.w.w.w.9.9.",
"U U w.w.<.$ z -.0.q.-.B 5.5.5.5.2.2...N 3., W < P w.w.w.w.w.w.9.",
"U Y w.w.q.;   d m c / 5.5.5.5.5...2._ I 5.n < O 7.w.w.w.w.w.w.9.",
"U w.w.w.w.w.;.3 X.5.5.5.5.5.5.5.] f m o.5.c = -.w.w.w.w.w.w.9.9.",
"U w.w.w.w.w.q.G % 3 d o.5.5.5.5.5.5.4.3.I O 6.w.w.w.w.w.w.w.9.9.",
"U w.w.w.w.w.w.9.H > Q O.5.5.5.5.5.3.] d ; 8.w.w.w.w.w.w.w.w.9.9.",
"U w.w.w.w.w.w.w.w.E ; $ f I ~ ! c 6 2   ,.w.w.w.w.w.w.w.w.w.9.9.",
"U U w.w.w.w.w.w.w.w.P ) &.#.x ) %.*.`   -.w.w.w.w.w.w.w.w.w.9.9.",
"U U w.w.w.w.w.w.w.w.L Z *.*.$.l @.C $ l P w.w.w.w.w.w.w.w.w.w.9.",
"U Y w.w.w.w.w.w.w.U $ l ` ' ' x # 3 ~ # L w.w.w.w.w.w.w.w.w.w.9.",
"U U w.w.w.w.w.w.w.K $ - q q q q 0   ] X H w.w.w.w.w.w.w.w.w.w.9.",
"U U w.w.w.w.w.w.w.E > O D D D A & * V ! O 0.w.w.w.w.w.w.w.w.w.9.",
"U U w.w.w.w.w.w.w.8.r 8 D D S o S q & J ; =.w.w.w.w.w.w.w.w.w.9.",
"U U w.w.w.w.w.w.9.r o q D D * = o 9 -.:.o E w.w.w.w.w.w.w.w.9.9.",
"U Y w.w.w.w.w.w.6.  -.;.G e o -.o R H 9 ,.w.w.w.w.w.w.w.9.9.9.9.",
"w.w.w.w.w.w.w.w.9.L ; =.<.y E 0.r f Y 8.w.w.w.w.w.w.w.w.w.w.9.9.",
"9.9.9.9.9.w.9.w.w.w.;.r 9 O 6.9.9.9.9.9.w.9.9.w.w.9.9.9.9.9.9.9.",
"w.9.9.9.9.9.9.9.9.9.9.9.<.7.9.9.9.9.9.9.9.9.9.9.9.9.9.9.9.9.9.9."
};
