/* XPM */
static char *result[] = {
/* columns rows colors chars-per-pixel */
"32 32 140 2 ",
"   c #020201",
".  c #0A0605",
"X  c #0C0C0A",
"o  c #120D09",
"O  c #1A0E09",
"+  c #15100D",
"@  c #1C120C",
"#  c #19190A",
"$  c #070D13",
"%  c #080D13",
"&  c #0B121A",
"*  c #141514",
"=  c #1B1817",
"-  c #1A1A1A",
";  c #25150D",
":  c #2A170F",
">  c #241B13",
",  c #331E13",
"<  c #381F13",
"1  c #2C2C13",
"2  c #312217",
"3  c #3A2114",
"4  c #34271C",
"5  c #3B2418",
"6  c #3C291C",
"7  c #343416",
"8  c #313218",
"9  c #3B341C",
"0  c #3E391D",
"q  c #0D1722",
"w  c #0F1A25",
"e  c #152435",
"r  c gray14",
"t  c #292F26",
"y  c gray16",
"u  c #3E2F20",
"i  c #2E3322",
"p  c #323827",
"a  c #323232",
"s  c #3B3B3B",
"d  c #422416",
"f  c #482718",
"g  c #4B291A",
"h  c #552E1D",
"j  c #592F1E",
"k  c #423E1D",
"l  c #453223",
"z  c #4A3726",
"x  c #4B3C26",
"c  c #46382B",
"v  c #48392B",
"b  c #5E3320",
"n  c #523E2C",
"m  c #443E3A",
"M  c #623521",
"N  c #6B3A25",
"B  c #723E27",
"V  c #753F28",
"C  c #4A4522",
"Z  c #454827",
"A  c #484822",
"S  c #504C23",
"D  c #57422E",
"F  c #59432E",
"G  c #565426",
"H  c #5A5A26",
"J  c #53463A",
"K  c #5B4939",
"L  c #7B432A",
"P  c #624A34",
"I  c #684E37",
"U  c #694F39",
"Y  c #6E543B",
"T  c #75583E",
"R  c #66662C",
"E  c #737331",
"W  c #1F344D",
"Q  c #213953",
"!  c #243C59",
"~  c #284464",
"^  c gray27",
"/  c #4B4B4B",
"(  c #575554",
")  c #5A5755",
"_  c #5C5C5B",
"`  c #7B5C41",
"'  c #605F5F",
"]  c #666464",
"[  c #6D6D6D",
"{  c #747474",
"}  c #7C7C7C",
"|  c #81462C",
" . c #816144",
".. c #886648",
"X. c #8E6B4B",
"o. c #94704E",
"O. c #9D7653",
"+. c #A77E58",
"@. c #858538",
"#. c #95953F",
"$. c #AB815B",
"%. c #B3875F",
"&. c #A3A345",
"*. c #AEAE4A",
"=. c #B98C62",
"-. c #C09166",
";. c #C49468",
":. c #CD9B6D",
">. c #D29E6F",
",. c #D39F71",
"<. c #D6A171",
"1. c #DCA575",
"2. c #E6AD7A",
"3. c #E8AF7B",
"4. c #EDB37E",
"5. c #C5C553",
"6. c #CCCC56",
"7. c #DEDE5E",
"8. c #F6F668",
"9. c #FFFF6C",
"0. c #848484",
"q. c #8A8A8A",
"w. c #939393",
"e. c #9A9A9A",
"r. c #A3A3A3",
"t. c #ABABAB",
"y. c #B2B2B2",
"u. c #BBBBBB",
"i. c #F2B680",
"p. c #F5B982",
"a. c #FBBD85",
"s. c #FFC087",
"d. c #C3C3C3",
"f. c #CACACA",
"g. c gray82",
"h. c #D9D9D9",
"j. c #E6E6E6",
"k. c #EDEDED",
"l. c #F5F5F5",
"z. c #FFFFFF",
/* pixels */
"] ] ] ] ] ] ] ] ] ] ] ] ] ] ] ] ] ] ] ] ] ] ] ] ] ] ] ] ] ] ] ] ",
"] ] ] ] ] ] ] l.l.] ] ] ] ' ) _ ] l.l.l.l.l.l.l.] ] l.] ] ] ] ] ",
"] ] l.l.l.l.l.l.l.l.f.{ r *   X - ' r.h.l.l.l.l.l.l.l.l.l.l.h.h.",
"] l.l.l.l.l.l.l.g.^ . 3 j B L N M d ; . / y.l.l.l.l.l.l.l.h.h.h.",
"] l.l.l.l.l.l.u.* , N | | | | | | | | N < + { l.l.l.l.l.l.l.h.h.",
"] l.l.l.l.l.j.- d | | | | B N N V L | | | N . } l.l.l.l.l.l.h.h.",
"] l.l.l.l.l._ : | | B 3 l T X.X.` D 5 h L | N . y.l.l.l.l.l.h.h.",
"] l.l.l.l.h.X M | f z ;.s.a.s.s.a.s.i.` , B L d a k.l.l.l.l.h.h.",
"] ] l.l.l.0.@ | d ` p.a.s.s.s.s.s.s.s.s.1.l N L   f.l.l.l.l.h.h.",
"] ] l.l.l.s h j U a.s.s.s.s.s.s.s.s.s.a.a.2.2 L , q.l.l.l.l.h.h.",
"] l.l.l.f.X V 6 a.a.,.` z s.s.s.s.O.v =.4.a.=.f g ( l.l.l.l.h.h.",
"] l.l.l.r.O b o.3.n ' } ) ` s.s.3.K [ q.) z a.< M r l.l.l.l.l.h.",
"] ] l.l.O.- < >.+.0.z.z.z.} -.s. .d.z.z.z.{ ,.n N   l.l.l.l.l.h.",
"] ] l.l.w.* ; 4.` k.r.[ z.f.` s.K z.w.] z.r.%.P M * l.l.l.l.h.h.",
"] l.l.l.d.% o i.` h.u.w.z.y.O.a.U l.f.t.z.0.:.v : / l.l.l.l.h.h.",
"] ] l.l.y.= I :.=.( h.z.j.m =.a.=.) h.z.f.J a.n u 0.l.l.l.l.l.h.",
"] ] l.l.u.@ %. .s.:.T c P 1.u ` <.<.U c Y 4.>. .T { l.l.l.l.l.h.",
"] l.l.l.l.{ + + 3.s.s.s.a.s.X.X.a.s.s.s.s.a.l > - d.l.l.l.l.h.h.",
"] l.l.l.l.l.f.s l i.s.s.s.a.1.>.1.a.s.s.s.X.* r.h.l.l.l.l.l.h.h.",
"] l.l.l.l.l.l.f.  x <.s.=.F ` X.` Y i.i.K 1 _ l.l.l.l.l.l.l.h.h.",
"] l.l.l.l.l.l.e.1 6.k Y $.1.4.p.i.:...9 &.5.  k.l.l.l.l.l.l.h.h.",
"] ] l.l.l.l.l./ E 9.H 7.&.R S C G @.5.#.5.8.# y.l.l.l.l.l.l.h.h.",
"] ] l.l.l.l.l.[   x 8 9.9.9.9.9.9.9.9.*.4 u X d.l.l.l.l.l.l.l.h.",
"] ] l.l.l.l.l.l.  1.9 9.9.9.9.9.9.9.9.6...` ] l.l.l.l.l.l.l.l.h.",
"] ] l.l.l.l.l.l.  <.0 9.9.9.9.9.9.9.9.7. . ./ l.l.l.l.l.l.l.l.h.",
"] ] l.l.l.l.l.l.] .   * t p 8 7 A Z i X     u.l.l.l.l.l.l.l.l.h.",
"] ] l.l.l.l.l.l.l.k.[ w ~ ~ &   e ~ !   h.l.l.l.l.l.l.l.l.l.l.h.",
"] ] l.l.l.l.l.l.l.l.} q ~ ~ $   e ~ Q   l.l.l.l.l.l.l.l.l.l.h.h.",
"] ] l.l.l.l.l.l.l.l.w.$ W Q $   & e &   l.l.l.l.l.l.l.l.h.h.h.h.",
"l.l.l.l.l.l.l.l.h.h.t.  q.} -   [ h.u.X k.l.l.l.l.l.l.l.l.l.h.h.",
"h.h.h.h.h.l.h.l.l.l.h._ - s y w.- s r [ l.h.h.l.l.h.h.h.h.h.h.h.",
"l.h.h.h.h.h.h.h.h.h.h.h.t.q.g.h.g.0.y.h.h.h.h.h.h.h.h.h.h.h.h.h."
};
