/* XPM */
static char *result[] = {
/* columns rows colors chars-per-pixel */
"32 32 235 2 ",
"   c black",
".  c #010101",
"X  c #040401",
"o  c #050403",
"O  c #060402",
"+  c #080704",
"@  c #0B0704",
"#  c #0B0705",
"$  c #0E0805",
"%  c #0D0A07",
"&  c #0C0C05",
"*  c #0D0D05",
"=  c #0F0F06",
"-  c #060A0F",
";  c gray5",
":  c #0F0E0E",
">  c #130A06",
",  c #140B07",
"<  c #150B07",
"1  c #150C07",
"2  c #100B0A",
"3  c #100C08",
"4  c #120C09",
"5  c #110D0A",
"6  c #180D08",
"7  c #190E09",
"8  c #16100C",
"9  c #18120D",
"0  c #19130D",
"q  c #1B140E",
"w  c #1C160E",
"e  c #070C12",
"r  c #090F16",
"t  c #0B121B",
"y  c #0B131C",
"u  c #0B141E",
"i  c #0D151F",
"p  c #131110",
"a  c #131211",
"s  c gray7",
"d  c gray9",
"f  c #191919",
"g  c gray10",
"h  c #1E1E1E",
"j  c #1F1E1E",
"k  c #20110B",
"l  c #24130D",
"z  c #23140C",
"x  c #2B180F",
"c  c #261D14",
"v  c #2E1F15",
"b  c #311D12",
"n  c #321C12",
"m  c #331C12",
"M  c #351D12",
"N  c #20200D",
"B  c #262610",
"V  c #282811",
"C  c #282915",
"Z  c #342218",
"A  c #34251A",
"S  c #34271C",
"D  c #3A3A19",
"F  c #3D3D1A",
"G  c #101923",
"H  c #162639",
"J  c #202020",
"K  c gray13",
"L  c #252525",
"P  c #272727",
"I  c #212821",
"U  c gray16",
"Y  c #2D2D2D",
"T  c #313131",
"R  c #343434",
"E  c #353535",
"W  c gray21",
"Q  c #422417",
"!  c #432517",
"~  c #472819",
"^  c #49291A",
"/  c #4C291B",
"(  c #4D2A1B",
")  c #4E2B1B",
"_  c #502C1C",
"`  c #532D1C",
"'  c #522E1C",
"]  c #552E1E",
"[  c #58301E",
"{  c #59301F",
"}  c #58311F",
"|  c #413123",
" . c #483424",
".. c #493726",
"X. c #4D3726",
"o. c #4A3F24",
"O. c #603521",
"+. c #633622",
"@. c #643622",
"#. c #643722",
"$. c #6E3C26",
"%. c #713E27",
"&. c #713F27",
"*. c #45421F",
"=. c #4C4125",
"-. c #59432F",
";. c #535323",
":. c #5B5A27",
">. c #754028",
",. c #79422A",
"<. c #7A432B",
"1. c #7C442B",
"2. c #7C452B",
"3. c #7E462C",
"4. c #624A35",
"5. c #684E37",
"6. c #71553C",
"7. c #76583F",
"8. c #606029",
"9. c #767632",
"0. c #1D324A",
"q. c #233C5A",
"w. c #253F5E",
"e. c #263F5F",
"r. c #284465",
"t. c gray27",
"y. c #464646",
"u. c gray28",
"i. c gray30",
"p. c gray31",
"a. c #505050",
"s. c gray32",
"d. c gray34",
"f. c #585858",
"g. c #5A5A5A",
"h. c #5B5B5B",
"j. c #7F5F43",
"k. c gray38",
"l. c #606164",
"z. c #646464",
"x. c #656565",
"c. c #666464",
"v. c gray40",
"b. c #666767",
"n. c DimGray",
"m. c #747474",
"M. c gray46",
"N. c #7E7E7E",
"B. c gray50",
"V. c #80462C",
"C. c #80462D",
"Z. c #81472D",
"A. c #806044",
"S. c #826246",
"D. c #947050",
"F. c #987351",
"G. c #997351",
"H. c #A17956",
"J. c #A87F5A",
"K. c #858538",
"L. c #8E8E3D",
"P. c #8F8F3D",
"I. c #91913E",
"U. c #9A9A42",
"Y. c #9D9D42",
"T. c #AA805B",
"R. c #AB815C",
"E. c #A8A848",
"W. c #B2B24C",
"Q. c #B8B84F",
"!. c #BABA50",
"~. c #B78A62",
"^. c #B98B63",
"/. c #C6956A",
"(. c #CF9C6F",
"). c #C1C153",
"_. c #C7C755",
"`. c #D0D059",
"'. c #D4D45B",
"]. c #D7D75C",
"[. c #DDDD5F",
"{. c #EFEF66",
"}. c #F7F769",
"|. c #FCFC6C",
" X c #FDFD6C",
".X c #FEFE6C",
"XX c #FFFF6D",
"oX c #838383",
"OX c #848484",
"+X c #898989",
"@X c gray54",
"#X c #8B8B8B",
"$X c #8D8D8D",
"%X c gray56",
"&X c gray57",
"*X c #929292",
"=X c gray58",
"-X c #959595",
";X c #989898",
":X c #9D9D9D",
">X c #9F9F9F",
",X c gray64",
"<X c gray68",
"1X c gray73",
"2X c gray75",
"3X c #F1B580",
"4X c #F7BA83",
"5X c #FFC088",
"6X c #C3C3C3",
"7X c #C5C5C5",
"8X c #C8C8C8",
"9X c #CBCBCB",
"0X c gray80",
"qX c #CDCDCD",
"wX c #CECECE",
"eX c gray81",
"rX c #D2D2D2",
"tX c LightGray",
"yX c #D5D5D5",
"uX c gray84",
"iX c #D8D8D8",
"pX c gray85",
"aX c gainsboro",
"sX c #DDDDDD",
"dX c #E1E1E1",
"fX c gray90",
"gX c #E6E6E6",
"hX c #E7E7E7",
"jX c gray92",
"kX c gray93",
"lX c #EFEFEF",
"zX c gray95",
"xX c #F3F3F3",
"cX c #F4F4F4",
"vX c gray96",
/* pixels */
"c.c.c.c.c.c.c.c.c.c.c.c.c.c.c.c.c.c.c.c.c.c.c.c.c.c.c.c.c.c.c.c.",
"c.c.c.c.c.c.c.vXvXc.c.c.c.c.c.c.c.vXvXvXvXvXvXvXc.c.vXc.c.c.c.c.",
"c.c.vXvXvXvXvXvXvXvXvXxXaXqX9XaXxXvXvXvXvXvXvXvXvXvXvXvXvXvXpXpX",
"c.vXvXvXvXvXvXvXvX0Xm.U 2 , 1 # f t.=XsXvXvXvXvXvXvXvXvXvXpXpXpX",
"c.vXvXvXvXvXvXvXB.: m +.<.Z.Z.2.$.` z ; g.kXvXvXvXvXvXvXvXvXpXpX",
"c.vXvXvXvXvXvXOX$ #.Z.Z.Z.Z.Z.Z.Z.Z.Z.@.l T dXvXvXvXvXvXvXvXpXpX",
"c.vXvXvXvXvX-X@ &.Z.Z.Z.Z.Z.Z.Z.Z.Z.Z.Z.Z.M R kXvXvXvXvXvXvXpXpX",
"c.vXvXvXvXlXf ' Z.Z.Z.Z.Z.Z.Z.Z.Z.Z.Z.Z.Z.V.k z.vXvXvXvXvXvXpXpX",
"c.c.vXvXvX<X7 ,.Z.Z.Z.Z.Z.Z.Z.Z.Z.Z.Z.Z.Z.Z.O.s dXvXvXvXvXvXpXpX",
"c.c.vXvXvXu./ Z.Z.Z.Z.Z.Z.Z.Z.Z.Z.Z.Z.Z.Z.Z.Z.7 ,XvXvXvXvXvXpXpX",
"c.vXvXvXfXp %.Z.Z.Z.Z.Z.Z.Z.Z.Z.Z.Z.Z.Z.Z.Z.Z.Q n.vXvXvXvXvXpXpX",
"c.vXvXvXwX> Z.Z.Z.Z.Z.Z.Z.Z.Z.Z.Z.Z.Z.Z.Z.Z.Z.] s.vXvXvXvXvXvXpX",
"c.c.vXvX8X6 Z.Z.Z.Z.Z.Z.Z.Z.Z.Z.Z.Z.Z.Z.Z.Z.Z.} i.vXvXvXvXvXvXpX",
"c.c.vXvXrX4 1.Z.Z.Z.Z.Z.Z.Z.Z.Z.Z.Z.Z.Z.Z.Z.Z.( d.vXvXvXvXvXpXpX",
"c.vXvXvXlXj O.Z.Z.Z.Z.Z.Z.Z.Z.Z.Z.Z.Z.Z.Z.Z.Z.x #XvXvXvXvXvXpXpX",
"c.c.vXvX9X9 Z >.Z.Z.Z.Z.Z.Z.Z.Z.Z.Z.Z.Z.Z.Z.{ O -XvXvXvXvXvXvXpX",
"c.c.vXvX1XS S.< %.Z.Z.Z.Z.Z.Z.Z.Z.Z.Z.Z.,.^  .j.h.vXvXvXvXvXvXpX",
"c.vXvXvXgXJ c S A [ C.Z.Z.Z.Z.Z.Z.Z.3.~ v ..| 0 =XvXvXvXvXvXpXpX",
"c.vXvXvXvXuXN.g F.D.X.n ) _ _ _ ! b -.T.(.5 x.*XvXvXvXvXvXvXpXpX",
"c.vXvXvXvXvXvX7Xa G.4XJ.4.5.7.A.R.3X5X^.q @XvXvXvXvXvXvXvXvXpXpX",
"c.vXvXvXvXvXvXvX%XX :.U.!.Q.E.I.9.*.=.N * f.vXvXvXvXvXvXvXvXpXpX",
"c.c.vXvXvXvXvXjXP L. XXXXXXXXXXXXX}.{.{.[.& dXvXvXvXvXvXvXvXpXpX",
"c.c.vXvXvXvXvX:XF |.'.Y.XXXXXXXXXXXX{.]._.* iXvXvXvXvXvXvXvXvXpX",
"c.c.vXvXvXvXvXt.K.{.).P.XXXXXXXXXXXX].w 6.% tXvXvXvXvXvXvXvXvXpX",
"c.c.vXvXvXvXcXv.+ o.B W.XXXXXXXXXX.X`.= 8 E zXvXvXvXvXvXvXvXvXpX",
"c.c.vXvXvXvXvXgX3 ~.V 8.8.;.D C I G -   +XcXvXvXvXvXvXvXvXvXvXpX",
"c.c.vXvXvXvXvXhX3 /.  H w.0.  y r.r.i $XvXvXvXvXvXvXvXvXvXvXvXpX",
"c.c.vXvXvXvXvXkXo H.  Y a.W   t r.r.u >XvXvXvXvXvXvXvXvXvXvXpXpX",
"c.c.vXvXvXvXvXvXM.K k.L f.L L r e.q.e 6XvXvXvXvXvXvXvXvXpXpXpXpX",
"vXvXvXvXvXvXvXvXpXpXvXyX&X2XoXd l.b.. eXvXvXvXvXvXvXvXvXvXvXpXpX",
"pXpXpXpXpXvXpXvXvXvXpXpXvXvX0Xd y.h p.pXvXpXpXvXvXpXpXpXpXpXpXpX",
"vXpXpXpXpXpXpXpXpXpXpXpXpXpXpX0XM.;XpXpXpXpXpXpXpXpXpXpXpXpXpXpX"
};
