/* XPM */
static char *result[] = {
/* columns rows colors chars-per-pixel */
"32 32 153 2 ",
"   c #010202",
".  c #010C0C",
"X  c #0A0D0D",
"o  c #00100F",
"O  c #011212",
"+  c #0B1212",
"@  c #001817",
"#  c #021D1A",
"$  c #0F1918",
"%  c #121313",
"&  c #002827",
"*  c #002E2C",
"=  c #083225",
"-  c #08362B",
";  c #06382F",
":  c #003331",
">  c #023C37",
",  c #013D3A",
"<  c #232323",
"1  c #343434",
"2  c #3A3A3A",
"3  c #00413F",
"4  c #084639",
"5  c #09473A",
"6  c #0B4C3B",
"7  c #104032",
"8  c #004644",
"9  c #004B49",
"0  c #01544F",
"q  c #005451",
"w  c #005957",
"e  c #005D5A",
"r  c #234C40",
"t  c #3F4D49",
"y  c #37574E",
"u  c #3A5D52",
"i  c #00615D",
"p  c #1B6550",
"a  c #116850",
"s  c #197057",
"d  c #14775A",
"f  c #31715F",
"g  c #006664",
"h  c #006C69",
"j  c #00716C",
"k  c #007672",
"l  c #007A77",
"z  c #007D79",
"x  c #327A66",
"c  c gray27",
"v  c #4E4E4E",
"b  c #4A5451",
"n  c #565757",
"m  c #525B58",
"M  c #5D5D5D",
"N  c #466D62",
"B  c #666464",
"V  c #626E6A",
"C  c #6C6C6C",
"Z  c #69716F",
"A  c #6A7974",
"S  c gray46",
"D  c #707876",
"F  c #7C7C7C",
"G  c #168465",
"H  c #198F6D",
"J  c #19916F",
"K  c #1A9874",
"L  c #2D8269",
"P  c #33987B",
"I  c #1CA57E",
"U  c #488876",
"Y  c #528F7E",
"T  c #63887D",
"R  c #008480",
"E  c #008E89",
"W  c #00938E",
"Q  c #009692",
"!  c #009D99",
"~  c #1DAD83",
"^  c #1EB58A",
"/  c #00A29D",
"(  c #31A382",
")  c #20BC8F",
"_  c #39BE97",
"`  c #00A8A3",
"'  c #51A58C",
"]  c #56AB92",
"[  c #21C193",
"{  c #23CF9E",
"}  c #23D19F",
"|  c #25DDA9",
" . c #27E6AF",
".. c #27E8B1",
"X. c #28EEB5",
"o. c #29F1B7",
"O. c #2FF7BE",
"+. c #2AFABE",
"@. c #57C9A8",
"#. c #41DBAF",
"$. c #5BDDB8",
"%. c #44E7B7",
"&. c #2BFFC2",
"*. c #5DEDC4",
"=. c #5CF8CB",
"-. c #78ECCB",
";. c #62FACE",
":. c #7BF0CF",
">. c #64FFD2",
",. c #7BFFD9",
"<. c #848484",
"1. c #888888",
"2. c #8B9E99",
"3. c gray60",
"4. c #87AFA4",
"5. c #8AB2A7",
"6. c #8ABAAC",
"7. c #8CBEB0",
"8. c gray64",
"9. c #ACACAC",
"0. c #A3B4AF",
"q. c #B3B3B3",
"w. c #B9B9B9",
"e. c #93DEC8",
"r. c #AFDACE",
"t. c #92E9D0",
"y. c #97F0D6",
"u. c #AFE2D4",
"i. c #ADE8D7",
"p. c #95FFE0",
"a. c #99FFE2",
"s. c #B1F5E1",
"d. c #B3FAE6",
"f. c #B3FFE9",
"g. c #C2C3C3",
"h. c #CECECE",
"j. c #C3D2CE",
"k. c #C2D5D0",
"l. c #C3DCD5",
"z. c #D5D5D5",
"x. c #D9D9D9",
"c. c #C4E3DA",
"v. c #D5E9E4",
"b. c #D7F9EF",
"n. c #D7FEF2",
"m. c #E4E4E4",
"M. c #E2E8E7",
"N. c #EBEBEB",
"B. c #EAF3F2",
"V. c #E6FEF7",
"C. c #EAFCF6",
"Z. c #F5F5F5",
"A. c #F3F9F7",
/* pixels */
"B B B B B B B B B B B B B B B B B B B B B B B B B B B B B B B B ",
"B B B B B B B Z.Z.B B B B B B B B Z.Z.Z.Z.Z.Z.Z.B B Z.B B B B B ",
"B B Z.Z.Z.Z.Z.Z.Z.Z.Z.Z.Z.Z.9.z.Z.Z.Z.Z.Z.Z.Z.Z.Z.Z.Z.Z.Z.Z.x.x.",
"B Z.Z.Z.Z.Z.Z.Z.Z.Z.Z.Z.Z.F   B Z.v 3.Z.Z.Z.Z.Z.Z.Z.Z.Z.Z.x.x.x.",
"B Z.Z.Z.Z.Z.Z.Z.Z.Z.Z.Z.z.  w 1 w.  % Z.Z.Z.Z.Z.Z.Z.Z.Z.Z.Z.x.x.",
"B Z.Z.Z.Z.Z.Z.Z.F g.Z.Z.B 9 !   < q O w.Z.Z.Z.Z.Z.Z.Z.Z.Z.Z.x.x.",
"B Z.Z.Z.Z.Z.Z.S   v z.S X E ` 3 # / * B m.Z.Z.Z.Z.Z.Z.Z.Z.Z.x.x.",
"B Z.Z.Z.Z.Z.m.% q   $ 3 & ` ` ` ! ` q & X n x.Z.Z.Z.Z.Z.Z.Z.x.x.",
"B B Z.Z.Z.Z.8.@ Q o R ` i ` ` ` ` ` z Q W : % <.F m.Z.Z.Z.Z.x.x.",
"B B Z.Z.Z.Z.M 9 ` e > ` / k e 0 e j W ` ` / w   . C Z.Z.Z.Z.x.x.",
"B Z.Z.Z.Z.Z.2 z ` ` ! 8 4 K } | { ) d * z ` ` * z < Z.Z.Z.Z.x.x.",
"B Z.Z.Z.Z.Z.2 k ` E 4 ) &.&.&.&.&.+.&. .a q j q ! + x.Z.Z.Z.Z.x.",
"B B Z.Z.Z.Z.2 g E 5 ..&.&.&.&.&.&.&.&.&.&.) > / ` O z.Z.Z.Z.Z.x.",
"B B Z.Z.Z.m.  ! ,  .&.&.X.| &.&.&.&.} &.&.&.K i ` @ z.Z.Z.Z.x.x.",
"B Z.Z.Z.Z.8.& l H &.) 6 . I +.&.&.X.= = d ^ o.5 / O z.Z.Z.Z.x.x.",
"B B Z.Z.Z.F 9 , | G m g.g.D J &.&.L 3.z.g.n ^ d g   x.Z.Z.Z.Z.x.",
"B B Z.Z.Z.S q ; +.r N.Z.Z.Z.n &.} F Z.Z.Z.z.s I j O z.Z.Z.Z.Z.x.",
"B Z.Z.Z.Z.1.: - o.t Z.Z.Z.Z.C &.[ 3.Z.Z.Z.m.p ~ h O m.Z.Z.Z.x.x.",
"B Z.Z.Z.Z.q.$ 7 O.r M.Z.Z.Z.y &. .V Z.Z.B.9.J H # < Z.Z.Z.Z.x.x.",
"B Z.Z.Z.Z.3.x x %.#.m 9.w.V P _ #.P Z q.0.u *.f ( c Z.Z.Z.Z.x.x.",
"B Z.Z.Z.Z.z.b Y ] >.;.@.@.*.$.N ' >.*.@.@.=.$.N U C Z.Z.Z.Z.x.x.",
"B B Z.Z.Z.Z.g.1.A :.,.p.,.,.,.-.,.,.,.,.,.,.T C <.x.Z.Z.Z.Z.x.x.",
"B B Z.Z.Z.Z.Z.Z.q.2.y.p.a.e.7.5.4.6.t.p.p.] 3.N.Z.Z.Z.Z.Z.Z.Z.x.",
"B B Z.Z.Z.Z.Z.Z.Z.h.0.r.d.u.s.f.f.s.s.i.0.8.Z.Z.Z.Z.Z.Z.Z.Z.Z.x.",
"B B Z.Z.Z.Z.Z.Z.Z.m.j.c.k.l.l.c.c.l.k.l.v.r.N.Z.Z.Z.Z.Z.Z.Z.Z.x.",
"B B Z.A.Z.Z.Z.Z.Z.m.v.n.n.n.b.b.b.b.n.n.b.z.Z.Z.Z.Z.Z.Z.Z.Z.Z.x.",
"B B Z.Z.Z.Z.Z.Z.Z.N.B.C.C.C.C.V.V.V.V.V.V.M.Z.Z.Z.Z.Z.Z.Z.Z.Z.x.",
"B B Z.Z.Z.Z.Z.Z.Z.Z.Z.Z.Z.Z.A.A.A.Z.Z.Z.Z.Z.Z.Z.Z.Z.Z.Z.Z.Z.x.x.",
"B B Z.Z.Z.Z.Z.Z.Z.Z.Z.Z.Z.Z.Z.Z.Z.Z.Z.Z.Z.Z.Z.Z.Z.Z.Z.Z.x.x.x.x.",
"Z.Z.Z.Z.Z.Z.Z.Z.x.x.Z.Z.Z.Z.Z.Z.Z.Z.Z.Z.Z.Z.Z.Z.Z.Z.Z.Z.Z.Z.x.x.",
"x.x.x.x.x.Z.x.Z.Z.Z.x.x.Z.Z.x.x.x.x.x.x.Z.x.x.Z.Z.x.x.x.x.x.x.x.",
"Z.x.x.x.x.x.x.x.x.x.x.x.x.x.x.x.x.x.x.x.x.x.x.x.x.x.x.x.x.x.x.x."
};
