/* XPM */
static char *_2ad173b1b654a02b28f5ba466a6372a9EBQHnOK99bD4IBy[] = {
/* columns rows colors chars-per-pixel */
"32 32 116 2 ",
"   c #060707",
".  c #070807",
"X  c #0D0D0D",
"o  c #0C0E10",
"O  c #0F1314",
"+  c #131413",
"@  c #161A1C",
"#  c #1C1D1C",
"$  c #191F22",
"%  c #1D2123",
"&  c #232523",
"*  c #262926",
"=  c #222729",
"-  c #242A2D",
";  c #2A2C2C",
":  c #252E32",
">  c #293134",
",  c #323434",
"<  c #333932",
"1  c #333638",
"2  c #373C3B",
"3  c #3C3E3C",
"4  c #3C423B",
"5  c #323D43",
"6  c #3F3F40",
"7  c #364248",
"8  c #3E4D53",
"9  c #434444",
"0  c #494A4A",
"q  c #404F56",
"w  c #425159",
"e  c #47585F",
"r  c #535353",
"t  c #535F5D",
"y  c #5C5D5D",
"u  c #475860",
"i  c #4B5A62",
"p  c #546262",
"a  c #52656C",
"s  c #566972",
"d  c #5C6E72",
"f  c #5A6F78",
"g  c #5E727D",
"h  c #666464",
"j  c #616C65",
"k  c #656E6B",
"l  c #6C6D6D",
"z  c #667169",
"x  c #6A756D",
"c  c #6F7473",
"v  c #747575",
"b  c #767B7A",
"n  c #7B7C7C",
"m  c #778273",
"M  c #5F7680",
"N  c #637A85",
"B  c #677E89",
"V  c #6B838D",
"C  c #7A8283",
"Z  c #748F9B",
"A  c #75919D",
"S  c #7A96A3",
"D  c #7C99A6",
"F  c #7F9CA9",
"G  c #858585",
"H  c #868C8B",
"J  c #8C8C8C",
"K  c #8D9393",
"L  c #949494",
"P  c #9A9C9C",
"I  c #9EA4A4",
"U  c #9DAEA1",
"Y  c #85A4B3",
"T  c #88A7B6",
"R  c #A2A3A3",
"E  c #A6ADAC",
"W  c #ABACAD",
"Q  c #A9B0AF",
"!  c #A8BAAD",
"~  c #B4B4B4",
"^  c #BBBBBB",
"/  c #93B5C5",
"(  c #96B7C8",
")  c #97BACA",
"_  c #9ABECE",
"`  c #9CBFD0",
"'  c #9DC1D2",
"]  c #A1C7D9",
"[  c #A4CADC",
"{  c #AAD2E4",
"}  c #AED7EA",
"|  c #AFD8EA",
" . c #B1DAED",
".. c #C6C6C6",
"X. c #CDCDCD",
"o. c #D4D4D4",
"O. c #D4DDDC",
"+. c #D8D8D8",
"@. c gray85",
"#. c gray87",
"$. c #DAE3E2",
"%. c #E1E1E1",
"&. c #E6E6E6",
"*. c #E7E7E7",
"=. c #E1EAE9",
"-. c #E4EDEC",
";. c #E9E9E9",
":. c #ECEBEB",
">. c gray93",
",. c #EEEEEE",
"<. c #EDF7F6",
"1. c gray94",
"2. c #F1F1F1",
"3. c #F3F3F3",
"4. c gray96",
"5. c #F0FAF9",
/* pixels */
"h h h h h h h h h h h h h h h h h h h h h h h h h h h h h h h h ",
"h h h h h h h 4.4.h h h h h h h h 4.:.:.4.4.4.4.h h 4.h h h h h ",
"h h 4.4.4.4.4.4.4.4.l ^ 4.4.4.4.4.&.$ y 4.4.4.4.4.4.4.4.4.4.+.+.",
"h 4.4.4.4.4.4.4.4.>.@ $ ~ 3.4.4.4.h B # 4.4.4.4.4.4.4.4.4.@.+.+.",
"h 4.4.4.4.4.4.4.4.4.% ( $ G 4.4.^ > | % :.3.4.4.4.4.4.4.4.4.@.@.",
"h 4.4.4.4.4.4.4.4.4.0 _ { 8 v >.* ) } q ^ 4.4.3.^ y R 4.4.4.@.@.",
"h 4.4.4.4.4.4.4.3.3.y /  . .5 0 w  . .N G %.n 3 5 i r 4.4.4.@.@.",
"h 4.4.4.4.o.X.:.3.3.v F  . .} = Y  . .( # = N (  .1 ..4.4.4.@.@.",
"h h 4.4.4.> : - 9 y , Y  . . .{  . . .{ N {  . ./ 7 4.4.4.4.@.@.",
"h h 4.4.4.J 7 ] ` T B /  . . . . . . . . . . . .c J 4.4.4.4.@.@.",
"h 4.4.4.4.4.G 1 [ | |  . . .D t p d F  . . . .} : +.3.3.4.4.@.@.",
"h 4.4.4.4.4.4.G 5 {  . . .V x ! ! ! k s N {  ./ = 1 y J +.4.4.@.",
"h h 4.4.4.4.4.%.0 1 { [ D 5 ! ! ! ! j Z {  . . . .{ S $ l 4.4.@.",
"h h 4.4.X.0 ; - u V  .[ ( A t U c d p |  . . . .[ 8 ; P *.4.@.@.",
"h 4.4.4.W # N }  . . . . . .Y q ' ] [  . . . .` O G :.4.4.4.@.@.",
"h h 4.4.4.+.0 w `  . . . . . .{ |  . . . . . .{ M 1 X.4.4.4.4.@.",
"h h 4.4.4.4.4.G   d  . . . . . . . . . . . . . . ./ - L 4.4.4.+.",
"h 4.4.4.4.4.^ # S }  . . . . . . . . . . . . .[ a a = 1 4.4.+.+.",
"h 4.4.4.4.L = _ |  . . . . . . . . . . . . .| [ % R o.:.4.4.@.@.",
"h 4.4.4.4.6 & > 7 f '  . . . . . . . . . . . . .u R 4.4.4.4.@.@.",
"h 4.4.4.4.:.#.&.^ 0 Y  . . . .|  . .{  . .N 5 8 w 9 4.4.4.4.@.@.",
"h h 4.4.4.4.4.4.4.7 ` [ A  . .T |  .d i _ N l ^ L W 4.4.4.4.@.@.",
"h h 4.4.4.4.4.4.<.  - o v N T b V A R t C 7 y 4.4.4.4.4.4.4.4.@.",
"h h 4.4.4.4.4.4.3.o.~ 2 Q k C 5.I K 5.r <.; n 4.4.4.4.4.4.4.4.@.",
"h h 4.4.4.4.4.4.4.4.l R U $.5.5.5.5.5.x $.n L 4.4.4.4.4.4.4.4.+.",
"h h 4.4.4.4.4.4.4.4.& 3.P =.5.5.5.5.5.K ^ @.9 4.4.4.4.4.4.4.4.+.",
"h h 4.4.4.4.4.4.4.o.+ h ; -.5.5.5.5.<.O.0 j & ~ 4.4.4.4.4.4.4.@.",
"h h 4.4.4.4.4.4.4.h z # O E H c l n K E & ; x l 4.4.4.4.4.4.@.@.",
"h h 4.4.4.4.4.4.4.r z r , < 4 + 0 < m ; 9 3 h l 4.4.4.4.@.@.@.@.",
"4.4.4.4.4.4.4.4.+.n + n r . U x @ @ 3 X P ; + R 4.4.4.4.4.4.@.@.",
"@.@.@.@.+.3.#.3.4.4.+.+.3.G * * * x U # 4.@.^ 4.4.@.@.@.@.@.@.@.",
"4.@.@.@.@.+.+.#.+.+.+.+.+.+.~ W W & ; b +.+.$.@.@.@.@.@.@.@.@.@."
};
