/* XPM */
static char *result[] = {
/* columns rows colors chars-per-pixel */
"32 32 149 2 ",
"   c #040404",
".  c #0B0C0C",
"X  c #141715",
"o  c #121618",
"O  c #161B1D",
"+  c #1A1B1A",
"@  c #1D221C",
"#  c #1F2121",
"$  c #1D2528",
"%  c #222424",
"&  c #23292B",
"*  c #2A2C2C",
"=  c #2D312C",
"-  c #242D31",
";  c #2B2F31",
":  c #2D3435",
">  c #323433",
",  c #363A36",
"<  c #343738",
"1  c #373D39",
"2  c #3A3C3B",
"3  c #3D423D",
"4  c #404A3E",
"5  c #313D42",
"6  c #354147",
"7  c #3E4540",
"8  c #3A464C",
"9  c #3D4C52",
"0  c #454745",
"q  c #444C47",
"w  c #484F46",
"e  c #474F4A",
"r  c #4A4B4B",
"t  c #4C534D",
"y  c #50584E",
"u  c #465253",
"i  c #4B5653",
"p  c #4F5852",
"a  c #44545B",
"s  c #48565A",
"d  c #47585F",
"f  c #4D5959",
"g  c #535454",
"h  c #535C55",
"j  c #545C5A",
"k  c #5C5D5D",
"l  c #596157",
"z  c #55615E",
"x  c #5A645E",
"c  c #5F685C",
"v  c #475960",
"b  c #4C5C63",
"n  c #505F62",
"m  c #546264",
"M  c #5D6762",
"N  c #5E6962",
"B  c #51626B",
"V  c #546871",
"C  c #596D76",
"Z  c #5A6F79",
"A  c #5D727B",
"S  c #666464",
"D  c #626C64",
"F  c #636C69",
"G  c #6B6C6C",
"H  c #67726A",
"J  c #6D786F",
"K  c #666E72",
"L  c #6E7A73",
"P  c #60757C",
"I  c #737675",
"U  c #727E73",
"Y  c #747978",
"T  c #7D7D7D",
"R  c #97354C",
"E  c #A8586B",
"W  c #76837A",
"Q  c #7C897F",
"!  c #607681",
"~  c #647B84",
"^  c #677F8A",
"/  c #6A828C",
"(  c #7F8C82",
")  c #6E8793",
"_  c #718A97",
"`  c #728C99",
"'  c #7793A0",
"]  c #7A96A2",
"[  c #7B98A5",
"{  c #858585",
"}  c #838B85",
"|  c #868B8B",
" . c #8B8C8C",
".. c #839186",
"X. c #85938A",
"o. c #8A978D",
"O. c #8B9190",
"+. c #8D9C92",
"@. c #909090",
"#. c #919F95",
"$. c #949A9A",
"%. c #9B9A9A",
"&. c #95A599",
"*. c #9AAA9E",
"=. c #A3BD9D",
"-. c #96A9A3",
";. c #9DAFA2",
":. c #9EB3AD",
">. c #87A6B4",
",. c #8AAAB9",
"<. c gray63",
"1. c #A2A9A8",
"2. c #AAAAAA",
"3. c #A2B4A7",
"4. c #A6B8AB",
"5. c #A8BAAD",
"6. c #A5BBB5",
"7. c #B2B2B2",
"8. c #BCBCBC",
"9. c #CFA1AC",
"0. c #92B4C4",
"q. c #97BACA",
"w. c #9ABECE",
"e. c #BFD7CE",
"r. c #A1C6D7",
"t. c #A5CCDE",
"y. c #A7CEE0",
"u. c #ABD3E6",
"i. c #AED7E9",
"p. c #AFD8EA",
"a. c #B1DAED",
"s. c gray77",
"d. c #CCC7C8",
"f. c #CACACA",
"g. c #CFD8D7",
"h. c #D4D4D4",
"j. c #D9D9D9",
"k. c #E6CED4",
"l. c #E9D4D8",
"z. c #C7E2DB",
"x. c #CBE6DF",
"c. c #DBE5E4",
"v. c #E5E5E5",
"b. c #E1EAE9",
"n. c #ECECEC",
"m. c #F7EFF2",
"M. c #E9F3F2",
"N. c #F5F5F5",
"B. c #FEFDFD",
/* pixels */
"S S S S S S S S S S S S S S S S S S S S S S S S S S S S S S S S ",
"S S S S S S S N.N.S S S S 2 + S S N.N.N.N.m.2.v.S S N.S S S S S ",
"S S N.N.N.N.N.N.N.N.N.N.N.2 b I N.N.N.N.N.r # 7.N.N.N.N.N.N.j.j.",
"S N.N.N.N.N.N.N.N.N.N.N.N.< y.& f.N.N.v.g Z 8 h.N.N.N.N.N.j.j.j.",
"F N.N.N.N.N.j.E j.N.N.N.h.9 a.q.& N.j.; ` a.$ n.N.N.N.N.N.N.j.j.",
"S N.N.N.N.N.C a $ S 7.N.%.~ a.a.! T * 0.a.a.O N.N.N.N.N.N.N.j.j.",
"S N.N.N.N.N.e.3 p.] a 2 > ,.a.a.q.. 0.a.a.a.> N.N.N.n.m.N.N.j.j.",
"S N.N.N.N.M.M.3 0.a.a.w.b r.a.a.p.r.p.a.a.u.* { S : ; g N.N.j.j.",
"S S N.N.N.N.N.%.P a.a.a.a.w.A u f n ' y.a.w.b ) ,.q.9 { N.N.j.j.",
"S S N.N.m.m.N.m.& a.a.p./ x ;.5.5.4.X.f q.a.p.a.y.9  .N.N.N.j.j.",
"S N.N.N.n.2.^ 0 . ,.a.P ( 5.5.5.5.5.5.3.f a.a.p.v { m.N.N.N.j.j.",
"S N.N.N.@.  ^ y.a.a.r.x 5.5.5.5.5.5.5.5.#.~ i.a n m.N.N.N.N.N.j.",
"S S N.N.n.@.# V u.a.] W s m z x M N n u Q n u.B 5 % g ^ v.N.N.j.",
"S S N.N.N.N.N.@.O w./ ..2 F b b B B K k x n a.a.a.i.K + 8.N.j.j.",
"S N.N.N.N.m.l.1 d u.~ D h.m.B.Y D n.k.B.Y M a.a.t.b g j.N.N.j.j.",
"S S N.N.N.e.& [ a.a.~ h N.E 9.G F N.R l.I j a.Z   { N.N.N.N.N.j.",
"S S N.N.N.< - Z ^ t./ U  .7.%.t L T d.<.H i t.y.~ > h.N.N.N.N.j.",
"S N.N.N.N.N.j.<.  >.& D *.N L x t *.L } +.1 5 t.p.,.; f.N.N.j.j.",
"S N.N.N.N.N.N.8.u A h w #.H &.X.L 4.4.5.q p x ~ 9 + o 0 N.N.j.j.",
"S N.m.N.N.N.N.g 9 : 4 x r J t H L M h t ( % > 6 -.N.n.N.N.N.j.j.",
"S N.N.N.N.N.N.7.@.7.r & } :.x.x.x.x.z.O.o.- _ ^ S N.N.N.N.N.j.j.",
"S S N.N.N.N.N.N.N.N.k # ..z.x.x.x.x.x.e.e o T 2 % N.N.N.N.N.j.j.",
"S S N.N.N.N.N.N.N.N.g 1.M 6.6.6.6.6.:.-.j > N.N.N.N.N.N.N.N.N.j.",
"S S N.N.N.N.N.N.N.N.2 M.I 1 I y c 7 I : b.> j.N.N.N.N.N.N.N.N.j.",
"S S N.N.N.N.N.N.N.s.@ Y g $.r l c 4 | O.c.O.@.N.N.N.N.N.N.N.N.j.",
"S S N.N.N.N.N.N.N.k D + 2 g.3 w h 1 F %.k l > n.N.N.N.N.N.N.N.j.",
"S S N.N.N.N.N.N.N.r D k * > t 4 =.= , F = t 0 8.N.N.N.N.N.N.N.j.",
"S S N.N.N.N.N.N.N.k + G   X U .   > = @ 2 # j 2.N.N.N.N.N.N.j.j.",
"S S N.N.N.N.B.N.N.N.N.N.f.* w . 4 +.} . %.O O v.N.N.N.N.j.j.j.j.",
"N.N.N.N.N.N.N.N.j.j.N.N.n.* 4.h S % % h.N.n.h.m.N.N.N.N.N.N.j.j.",
"j.j.j.j.j.N.j.N.N.N.j.j.N.k 3 % d.s.h.j.N.j.j.N.N.j.j.j.j.j.j.j.",
"N.j.j.j.j.j.j.j.j.j.j.j.j.j.<.7.j.j.j.j.j.j.j.j.j.j.j.j.j.j.j.j."
};
