/* XPM */
static char *result[] = {
/* columns rows colors chars-per-pixel */
"32 32 107 2 ",
"   c #060606",
".  c #0C0E0D",
"X  c #0E1011",
"o  c #151616",
"O  c #131719",
"+  c #151818",
"@  c #1A1C1B",
"#  c #280A13",
"$  c #241C1F",
"%  c #1F221F",
"&  c #20221E",
"*  c #1C2023",
"=  c #232525",
"-  c #272B27",
";  c #212628",
":  c #262928",
">  c #2A2C2B",
",  c #2C312E",
"<  c #32342E",
"1  c #272F31",
"2  c #2A2F31",
"3  c #2A3234",
"4  c #2E3639",
"5  c #333334",
"6  c #353B36",
"7  c #30373A",
"8  c #3B3B3B",
"9  c #3B413D",
"0  c #333D42",
"q  c #3B464A",
"w  c #434644",
"e  c #454C45",
"r  c #4C4C4C",
"t  c #4B514B",
"y  c #465156",
"u  c #4D5452",
"i  c #46555B",
"p  c #48565D",
"a  c #4D5C5F",
"s  c #535353",
"d  c #555D56",
"f  c #545C5B",
"g  c #5B5B5B",
"h  c #625F5F",
"j  c #5A635D",
"k  c #5F6861",
"l  c #53646A",
"z  c #5B6B74",
"x  c #666464",
"c  c #636D63",
"v  c #6A6A6A",
"b  c #677167",
"n  c #6F7A6F",
"m  c #64757C",
"M  c #757575",
"N  c #747F76",
"B  c #7E7C7D",
"V  c #758176",
"C  c #788478",
"Z  c #7D8A7E",
"A  c #6A7E87",
"S  c #6B7E88",
"D  c #BA6F84",
"F  c #6E828D",
"G  c #718792",
"H  c #758B95",
"J  c #7C939E",
"K  c #7C95A1",
"L  c #818181",
"P  c #828E83",
"I  c #8E8E8E",
"U  c #869386",
"Y  c #8F9F8F",
"T  c #8F9C90",
"R  c #939393",
"E  c #9C9C9C",
"W  c #93A294",
"Q  c #97A799",
"!  c #98A799",
"~  c #9CAC9C",
"^  c #87A1AF",
"/  c #90AAB7",
"(  c #92AEBC",
")  c #A5A5A5",
"_  c #A8A7A7",
"`  c #ACACAC",
"'  c #A3B3A3",
"]  c #AABBAA",
"[  c #B3B3B3",
"{  c #B5B8B8",
"}  c #BCBCBC",
"|  c #97B3C3",
" . c #99B6C4",
".. c #9EBCCB",
"X. c #A0BECE",
"o. c #A4C2D1",
"O. c #B3D4E5",
"+. c #BBDDEE",
"@. c #C3C3C3",
"#. c #CCCCCC",
"$. c #D3D3D3",
"%. c #D9D9D9",
"&. c #E3CFD4",
"*. c #E3E3E4",
"=. c #EBEBEB",
"-. c #F5F5F5",
";. c #FFFFFF",
/* pixels */
"x x x x x x x x x x x x x x h h x x x x l k k c x x x x x x x x ",
"x x x x x x x -.-.x x x x x 8 X s -.-.-.-.-.-.-.x x -.x x x x x ",
"x x -.-.-.-.-.-.-.-.-.-.-.-.I p 2 _ -.-.-.-.-.-.-.-.-.-.-.-.%.%.",
"x -.-.-.-.=.=.-.-.-.-.-.-.-.M G X.; [ -.-.-.-.-.-.-.-.-.-.%.%.%.",
"x -.-.-.-.B * 5 8 v #.-.-.-.v J +.X.$ %.-.-.-.-.-.-.-.-.-.-.%.%.",
"x -.-.-.-.#.2 X.X.H 3 e ) -.r ..+.+.^ w -.-.-.-.-.-.-.-.-.-.%.%.",
"x -.-.-.-.-.R i +.+.+.| i > = O.+.+.+.7 $.-.-.-.-.-.-.-.-.-.%.%.",
"x -.-.-.-.-.-.>  .+.+.+.+. .q +.+.+.+.S D =.-.-.-.-.-.-.-.-.%.%.",
"x x -.-.-.-.-.} 1 +.+.+.+.+.+.+.o.u t w o %.-.-.-.-.-.-.-.-.%.%.",
"x x -.-.-.-.-.-.g K +.+.+.+.+.O.a ' ] ] Z = $.-.-.-.-.-.-.-.%.%.",
"x -.-.-.-.-.=._ g X O.+.+.+.+.A Y ] ] ] ' d 5 -.-.-.-.-.-.-.%.%.",
"x -.-.-.#.h o l J ^ +.+.+.+...d ] ] C N ~ U 3 E -.-.-.-.-.-.-.%.",
"x x -.%.  S +.+.+.+.+.+.+.+.G Y ] ' q ( F l p 3 I -.-.-.-.-.-.%.",
"x x -.-.) ; ^ +.+.+.+.+.+.+.A ' ] ] T 9 f l l 0 I -.-.-.-.-.%.%.",
"x -.-.-.-.%.5 z +.+.+.+.+.+.m ] ] ] ] k ;.;.&.* %.-.-.-.-.-.%.%.",
"x x -.-.-.-.=.g 1 +.+.+.+.+.m ] ] ] ] u ;.;.D # $.-.-.-.-.-.-.%.",
"x x -.-.-.-.#.= / +.+.+.+.+.m ] ] ] ] C I %.B + @.-.-.-.-.-.-.%.",
"x -.-.-.-.*.:  .+.+.+.+.+.+.y V P ' ' V n n Z c h -.-.-.-.-.%.%.",
"x -.-.-.=.8 S +.+.+.+.+.+.+.q 8 , N ] ! ! ] k . M -.-.-.-.-.%.%.",
"x -.-.-.$.  + * X q +.+.+.+.4 d 8 c ] ] ] ! , r =.-.-.-.-.-.%.%.",
"x -.-.-.-.-.=.-.u ( +.+.+.+.f Z W k e s j j P < -.-.-.-.-.-.%.%.",
"x x -.-.-.-.-.-.@ O.X.z m O.4 C Q ] ] ] ~ ] b M -.-.-.-.-.-.%.%.",
"x x -.-.-.-.-.{ . * w g * 7 { L   O q b ! ] 6 } -.-.-.-.-.-.-.%.",
"x x -.-.-.-.-.-._ =.-.%., I ;.` { v < d 5 % = =.-.-.-.-.-.-.-.%.",
"x x -.-.-.-.-.-.-.-.-.@.r x } R g d e [ -.=.*.-.-.-.-.-.-.-.-.%.",
"x x -.-.-.-.-.-.-.-.-.I 8 j w d - - & ` -.-.-.-.-.-.-.-.-.-.-.%.",
"x x -.-.-.-.-.-.-.-.-.d 8 c M 6 e E } -.-.-.-.-.-.-.-.-.-.-.-.%.",
"x x -.-.-.-.-.-.-.-.-.- : > . < - %.-.-.-.-.-.-.-.-.-.-.-.-.%.%.",
"x x -.-.-.-.-.-.-.-.-.) E I & c 9 -.-.-.-.-.-.-.-.-.-.-.%.%.%.%.",
"-.-.-.-.-.-.-.-.%.%.-.-.-.@.o r : R -.-.-.-.-.-.-.-.-.-.-.-.%.%.",
"%.%.%.%.%.-.%.-.-.-.%.%.-.} : d 9 . @.%.-.%.%.-.-.%.%.%.%.%.%.%.",
"-.%.%.%.%.%.%.%.%.%.%.%.%.$.E R R _ %.%.%.%.%.%.%.%.%.%.%.%.%.%."
};
