/* XPM */
static char *result[] = {
/* columns rows colors chars-per-pixel */
"32 32 104 2 ",
"   c gray2",
".  c #0B0B0B",
"X  c #0F1214",
"o  c #141514",
"O  c #161917",
"+  c #121619",
"@  c #16191B",
"#  c #1B1D1B",
"$  c #270B13",
"%  c #1E2223",
"&  c #222423",
"*  c #252926",
"=  c #252B2D",
"-  c #292B2B",
";  c #2F342F",
":  c #2A2F32",
">  c #2B3235",
",  c #323433",
"<  c #363B35",
"1  c #363739",
"2  c #373D3A",
"3  c #3B3B3B",
"4  c #3D443E",
"5  c #353E41",
"6  c #374247",
"7  c #3D4442",
"8  c #444444",
"9  c #434943",
"0  c #464E49",
"q  c #4B4C4B",
"w  c #4C524C",
"e  c #414E53",
"r  c #445256",
"t  c #4F5957",
"y  c #46555D",
"u  c #49575C",
"i  c #515552",
"p  c #565E5A",
"a  c #5D5D5D",
"s  c #5B645D",
"d  c #4D5D63",
"f  c #576166",
"g  c #5D6060",
"h  c #55656C",
"j  c #58686D",
"k  c #576870",
"l  c #5B6B74",
"z  c #666464",
"x  c #626C63",
"c  c gray42",
"v  c #667167",
"b  c #6A736B",
"n  c #6D796E",
"m  c #737373",
"M  c #717C71",
"N  c #807F7F",
"B  c #B9697F",
"V  c #748175",
"C  c #798577",
"Z  c #7D897D",
"A  c #667B86",
"S  c #6A7D88",
"D  c #70858E",
"F  c #718792",
"G  c #758B95",
"H  c #798F9A",
"J  c #7D929E",
"K  c #838383",
"L  c #818E82",
"P  c #8C8C8C",
"I  c #839185",
"U  c #979797",
"Y  c #909F91",
"T  c #9B9B9B",
"R  c #95A495",
"E  c #9AAA9B",
"W  c #839AA5",
"Q  c #839CA9",
"!  c #8AA4B2",
"~  c #8EAAB7",
"^  c #90ABB9",
"/  c #A4A4A4",
"(  c #ADACAD",
")  c #A3B3A4",
"_  c #AABBAA",
"`  c #B2B2B2",
"'  c #BCBCBC",
"]  c #9BB8C7",
"[  c #9EBCCB",
"{  c #A0BECD",
"}  c #A8C6D7",
"|  c #AECEDE",
" . c #B2D3E4",
".. c #B7DAEA",
"X. c #BBDDEE",
"o. c #C4C4C4",
"O. c #CBCACB",
"+. c #D5D5D5",
"@. c #D9D9D9",
"#. c #E4E4E4",
"$. c #EEEEEE",
"%. c #F0E3E6",
"&. c #F5F5F5",
"*. c #FFFFFF",
/* pixels */
"z z z z z z z z z z z z z z z z z z z z z z z z z z z z z z z z ",
"z z z z z z z &.&.z z z z z z i . ( &.&.&.&.&.&.z z &.z z z z z ",
"z z &.&.&.&.&.&.&.&.&.&.&.&.' & q / &.&.&.&.&.&.&.&.&.&.&.&.@.@.",
"z &.&.&.&.&.&.&.&.&.&.&.&.o., { F P &.&.&.&.&.&.&.&.&.&.&.@.@.@.",
"z &.&.&.&.&.&.&.&.&.&.&.#.* [ X.H N &.&.&.#.m 8 & X U &.&.&.@.@.",
"z &.&.&.&.&.&.&.&.&.&.&.g F X.X.] q &.( i = S { { , +.&.&.&.@.@.",
"z &.&.&.&.&.&.&.&.&.&.O.> ..X.X.| @ 5 e ! X.X.X.r T &.&.&.&.@.@.",
"z &.&.&.&.&.&.&.&.&.&.D S X.X.X.X.& ] X.X.X.X.~ 3 &.&.&.&.&.@.@.",
"z z &.&.&.&.&.&.&.&.@.& 2 p d  .X.X.X.X.X.X...= o.&.&.&.&.&.@.@.",
"z z &.&.&.&.&.&.&.+., V _ _ R r X.X.X.X.X.X.S m &.&.&.&.&.&.@.@.",
"z &.&.&.&.&.&.&.&.9 8 ) _ _ _ Y A ..X.X.X.} o m ` $.&.&.&.&.@.@.",
"z &.&.&.&.&.&.&.` % I E V Z _ _ z | X.X.X...Q S y & c +.&.&.&.@.",
"z z &.&.&.&.&.U > u f h ! 6 E _ Y J X.X.X.X.X.X.X. .l o #.&.&.@.",
"z z &.&.&.&.&.N 6 j j f 2 Y _ _ / A X.X.X.X.X.X.X.G & ( &.&.@.@.",
"z &.&.&.&.&.&.&.& %.*.*.i _ _ _ _ k X.X.X.X.X...A 3 #.&.&.&.@.@.",
"z z &.&.&.&.&.&.$ B *.*.z _ _ _ _ k X.X.X.X.| : i &.&.&.&.&.&.+.",
"z z &.&.&.&.&.o.O K @.P V _ _ _ _ j X.X.X.X.X.J : +.&.&.&.&.&.@.",
"z &.&.&.&.&.&.z b L M n M ) _ L n u X.X.X.X.X.X.~ 1 #.&.&.&.@.@.",
"z &.&.&.&.&.&.m . x _ E Y _ v ; 7 5 X.X.X.X.X.X.X.l a &.&.&.@.@.",
"z &.&.&.&.&.&.&.q ; R _ _ _ s 0 i 6 X.X.X.X.: + % @ . #.&.&.@.@.",
"z &.&.&.&.&.&.&.; L s i q p n E Z t X.X.X.X.W c &.&.$.&.&.&.@.@.",
"z z &.&.&.&.&.&.m b _ E _ _ ) Y v * ..d k ^ | - &.&.&.&.&.&.@.@.",
"z z &.&.&.&.&.&.o.< ) R v 4 & o P ( 6 % z 0 : . +.&.&.&.&.&.&.@.",
"z z &.&.&.&.&.&.&.- * 3 a < b ` ( *.m * @.&.#.o.&.&.&.&.&.&.&.@.",
"z z &.&.&.&.&.&.&.#.#.&.` w s s P ' a q o.&.&.&.&.&.&.&.&.&.&.@.",
"z z &.&.&.&.&.&.&.&.&.&.' O O # x 0 x 3 T &.&.&.&.&.&.&.&.&.&.@.",
"z z &.&.&.&.&.&.&.&.&.&.&.O.U 9 * N b 8 g &.&.&.&.&.&.&.&.&.&.@.",
"z z &.&.&.&.&.&.&.&.&.&.&.&.+.* % . - & 8 &.&.&.&.&.&.&.&.&.@.@.",
"z z &.&.&.&.&.&.&.&.&.&.&.&.&.3 C # ' ` ' &.&.&.&.&.&.&.@.@.@.@.",
"&.&.&.&.&.&.&.&.@.@.&.&.&.&.K # 4 . @.&.&.&.&.&.&.&.&.&.&.&.@.@.",
"@.@.@.@.@.&.@.&.&.&.@.@.&.#.  4 4 o / @.&.@.@.&.&.@.@.@.@.@.@.@.",
"&.@.@.@.@.@.@.@.@.+.@.@.@.@.( U T ( @.@.+.@.@.@.@.@.@.@.@.@.@.@."
};
