/* XPM */
static char *result[] = {
/* columns rows colors chars-per-pixel */
"32 32 151 2 ",
"   c #020202",
".  c #0C0D0D",
"X  c #0E100D",
"o  c #0D1113",
"O  c #121413",
"+  c #161819",
"@  c #1A1C1B",
"#  c #1F221E",
"$  c #191F21",
"%  c #1E2224",
"&  c #1F2629",
"*  c #232525",
"=  c #252A23",
"-  c #282C27",
";  c #242A2C",
":  c #2A2B2B",
">  c #2D322E",
",  c #2E2F30",
"<  c #2A3236",
"1  c #2B353A",
"2  c #323633",
"3  c #363A34",
"4  c #323738",
"5  c #363C3B",
"6  c #3B3C3B",
"7  c #3E433E",
"8  c #354146",
"9  c #3D4342",
"0  c #3F4847",
"q  c #364248",
"w  c #38454B",
"e  c #3C494F",
"r  c #3D4B51",
"t  c #434646",
"y  c #454D46",
"u  c #454A4B",
"i  c #4B4C4B",
"p  c #4B524D",
"a  c #415057",
"s  c #4F5651",
"d  c #4E5956",
"f  c #47575E",
"g  c #49575B",
"h  c #4D5A5C",
"j  c #545655",
"k  c #535B54",
"l  c #5C5B5B",
"z  c #5B645C",
"x  c #4A5B63",
"c  c #505F62",
"v  c #556364",
"b  c #5C6561",
"n  c #5E6861",
"m  c #53656C",
"M  c #586668",
"N  c #556872",
"B  c #5A6D74",
"V  c #596E78",
"C  c #5D737D",
"Z  c #666464",
"A  c #626C65",
"S  c #61676B",
"D  c #646C6A",
"F  c #6C6D6D",
"G  c #6A7467",
"H  c #66726B",
"J  c #6A756D",
"K  c #6E7B72",
"L  c #6F7E79",
"P  c #737473",
"I  c #747D76",
"U  c #74797C",
"Y  c #7A7C7C",
"T  c #B2697B",
"R  c #73827D",
"E  c #7A847E",
"W  c #607681",
"Q  c #627984",
"!  c #677E8A",
"~  c #B57081",
"^  c #69818D",
"/  c #788783",
"(  c #7C8B84",
")  c #6D8691",
"_  c #6F8994",
"`  c #748F9B",
"'  c #7C99A7",
"]  c #848484",
"[  c #878788",
"{  c #868B8B",
"}  c #8A8B8B",
"|  c #859489",
" . c #89948E",
".. c #89988E",
"X. c #8E9291",
"o. c #8C9C92",
"O. c #949595",
"+. c #979D9D",
"@. c #9D9C9C",
"#. c #90A095",
"$. c #98A693",
"%. c #94A398",
"&. c #9BAB9F",
"*. c #A0BA9A",
"=. c #809EAC",
"-. c #83A2AF",
";. c #9CA3A3",
":. c #9EAEA3",
">. c #9FB1A4",
",. c #85A3B1",
"<. c #8FB0BF",
"1. c #A2A2A2",
"2. c #A7AEAD",
"3. c #ABABAB",
"4. c #A3B4A8",
"5. c #A7B9AC",
"6. c #A8BAAD",
"7. c #ADB5B4",
"8. c gray70",
"9. c #BBBBBB",
"0. c #CE9EA9",
"q. c #D4ABB5",
"w. c #AFC5BD",
"e. c #8FB1C0",
"r. c #94B6C6",
"t. c #97BACB",
"y. c #99BDCD",
"u. c #9EC2D4",
"i. c #B4CDC5",
"p. c #A1C7D7",
"a. c #A4CADC",
"s. c #A8CFE1",
"d. c #AAD1E4",
"f. c #AED6E9",
"g. c #AFD8EA",
"h. c #B1DAED",
"j. c #C3C3C3",
"k. c #CDCDCD",
"l. c #C5DED6",
"z. c #D5D5D5",
"x. c #D9D9D9",
"c. c #E6CED4",
"v. c #EAD7DB",
"b. c #E0DDDD",
"n. c #CBE6DF",
"m. c #DBE5E3",
"M. c #E4E4E4",
"N. c #EFE0E4",
"B. c #EAEAEA",
"V. c #F2E6E9",
"C. c #F5F5F5",
/* pixels */
"Z Z Z Z Z Z Z Z Z Z Z Z Z Z Z Z Z Z Z Z Z Z Z Z Z Z Z Z Z Z Z Z ",
"Z Z Z Z Z Z Z C.C.Z Z Z l i Z Z Z C.C.C.C.C.C.C.Z Z C.Z Z Z Z Z ",
"Z Z C.C.C.C.C.C.C.C.C.C.Z ; 8.C.C.C.C.C.9.4 1.C.C.C.C.C.C.C.b.x.",
"Z C.C.C.C.C.C.C.C.C.C.C.6 r.* B.C.C.C.j.4 a 1.C.C.C.C.C.C.x.x.x.",
"Z C.C.C.C.C.C.C.C.C.C.B.1 h.! Z C.C.X., e.x j.C.C.C.C.C.C.C.x.x.",
"Z C.C.C.C.} o Z z.C.C.9.e g.g.8 9.] e s.g.1 B.C.C.C.C.C.C.C.x.x.",
"Z C.C.C.C.@.x ' , , 1.E ^ g.h.<.+ r a.h.h.; C.C.C.C.C.C.C.C.x.x.",
"Z C.C.C.C.C.@ s.h.a.x o -.h.f.t.x s.h.h.h.$ C.C.8.O.8.C.C.C.x.x.",
"Z Z C.C.C.C.P ^ h.h.h.u.^ d A J k h =.h.d.  % 1 N m 6 C.C.C.x.x.",
"Z Z C.C.C.C.z.8 h.h.a.c ( 6.6.6.5.5.A ) h.p.h.h.e.% x.C.C.C.x.x.",
"Z C.C.C.C.C.k.. u.h.V %.6.6.6.6.5.6.6.S e.h.h.r.$ z.C.C.C.C.x.x.",
"Z C.C.j.u ; x W y.a.z o.#.4.6.6.5.%.| :.B h.y.; z.C.C.C.C.C.C.x.",
"Z Z C.8.* Q u.g.h.' K < m m v M N m u n c h.* 6 O.j.M.C.C.C.C.x.",
"Z Z C.C.B.} , ^ f.C | l [ U q g S X.1.z b h.a.,.W q O 1.C.C.x.x.",
"Z C.C.C.C.C.3.. e.B z x.c.N.] b M.q.V.[ d h.g.g.p.w Z z.C.C.x.x.",
"Z Z C.C.C.} * t.h.Q k x.~ 0.P D x.T v.U l g.s.W $ 3.C.C.C.C.C.x.",
"Z Z C.C.P 1 a.f.h.Q R j @.F 9 J j @.Y K d ,.) % / C.C.C.C.C.C.x.",
"Z C.C.C.3.l 5 + B = p >.k I A 7 5.%.&...y ; y.a.x l C.C.C.C.x.x.",
"Z C.C.C.C.C.B.% m J d R #.:. .H %.5.5.p i D t.y.` 4 i C.C.C.x.x.",
"Z C.C.C.C.C.1.x _ 7 k p z A / o.( H 7 E 0 g x t P F } C.C.C.x.x.",
"Z C.C.C.C.C.l ; 9 : @ o.i.n.n.n.n.n.w.o.! g.) [ C.C.C.C.C.C.x.x.",
"Z Z C.C.C.C.C.C.C.U u J n.n.n.n.n.n.l.p & % f O C.C.C.C.C.C.x.x.",
"Z Z C.C.C.C.C.C.C.j 7 S / R R E R R L { * M.8.Y C.C.C.C.C.C.C.x.",
"Z Z C.C.C.C.C.C.C.F +.[ J &.G $.s ;.t m./ O.C.C.C.C.C.C.C.C.C.x.",
"Z Z C.C.C.C.C.C.C.- B.[ o.j y p 3 D  .2.X.i C.C.C.C.C.C.C.C.C.x.",
"Z Z C.C.C.C.C.C.M.. S Z m.2 z z k Y 7.s I 2 j.C.C.C.C.C.C.C.C.x.",
"Z Z C.C.C.C.C.C.F z > t D : - *.2 p @.@ + D Y C.C.C.C.C.C.C.C.x.",
"Z Z C.C.C.C.C.C.6 A i   O k @ = - 7 X 6 @ y 1.C.C.C.C.C.C.C.x.x.",
"Z Z C.C.C.C.C.C.j # F : * | p j # 3 i 9.[ i C.C.C.C.C.C.x.x.x.x.",
"C.C.C.C.C.C.C.C.j.3.C.z.l 6 * 3 J P b C.C.C.C.C.C.C.C.C.C.C.x.x.",
"x.x.x.x.x.C.x.C.C.C.x.x.C.j.3.Y y 6 P x.C.x.x.C.C.x.x.x.x.x.x.x.",
"C.x.x.x.x.x.x.x.x.x.x.x.x.x.x.z.F O.x.x.x.x.x.x.x.x.x.x.x.x.x.x."
};
