/* XPM */
static char *result[] = {
/* columns rows colors chars-per-pixel */
"32 32 108 2 ",
"   c #080807",
".  c #0B0C0C",
"X  c #0F1010",
"o  c #141413",
"O  c #171917",
"+  c #171A18",
"@  c #1B1C1B",
"#  c #1F2020",
"$  c #232424",
"%  c #262826",
"&  c #202529",
"*  c #262B2C",
"=  c #2A2C2B",
"-  c #2D332F",
";  c #35382F",
":  c #262E31",
">  c #2D3232",
",  c #2C3439",
"<  c #333434",
"1  c #353A36",
"2  c #333A3C",
"3  c #3B3C3C",
"4  c #4D1F2B",
"5  c #3B413B",
"6  c #364046",
"7  c #3F4243",
"8  c #3D494F",
"9  c #3E4A51",
"0  c #434343",
"q  c #444C45",
"w  c #464E49",
"e  c #4C4C4C",
"r  c #4B534C",
"t  c #404D54",
"y  c #484F50",
"u  c #455153",
"i  c #535453",
"p  c #525B54",
"a  c #535D58",
"s  c #5B5C5C",
"d  c #6F404D",
"f  c #576158",
"g  c #5A635D",
"h  c #4E5D65",
"j  c #52626A",
"k  c #5C6B6C",
"l  c #5D6F79",
"z  c #666464",
"x  c #616B62",
"c  c #686969",
"v  c #667063",
"b  c #6A746A",
"n  c #6D786F",
"m  c #627071",
"M  c #61747D",
"N  c #727372",
"B  c #717C72",
"V  c #7C7C7C",
"C  c #758276",
"Z  c #7A867B",
"A  c #7D8B7E",
"S  c #667983",
"D  c #6C818B",
"F  c #6F8690",
"G  c #708592",
"H  c #778D99",
"J  c #788F99",
"K  c #7B929E",
"L  c #7D96A1",
"P  c #838484",
"I  c #8C8D8E",
"U  c #879587",
"Y  c #89978A",
"T  c #8A988B",
"R  c #969696",
"E  c #9C9C9C",
"W  c #96A497",
"Q  c #9EAF9F",
"!  c #859EAB",
"~  c #86A0AE",
"^  c #8BA7B5",
"/  c #92ADBA",
"(  c #95B1BF",
")  c #A4A4A4",
"_  c #AAAAAA",
"`  c #A3B4A4",
"'  c #AABBAA",
"]  c #B5B5B5",
"[  c #BBBBBB",
"{  c #96B2C1",
"}  c #99B6C4",
"|  c #9EBCCB",
" . c #A4C3D2",
".. c #A9C7D7",
"X. c #ABCBDB",
"o. c #B4D5E7",
"O. c #B6D8E9",
"+. c #BBDDEE",
"@. c #C5C5C5",
"#. c #CBCBCB",
"$. c LightGray",
"%. c #D9D9D9",
"&. c #E6CCD4",
"*. c #EFDCE1",
"=. c #E3E3E3",
"-. c #ECECEC",
";. c #F5F5F5",
":. c #FFFFFF",
/* pixels */
"z z z z z z z z z z z z z z z s i z z z z z z z z z z z z z z z ",
"z z z z z z z ;.;.z z z z z i X @ ;.;.;.;.;.;.;.z z ;.z z z z z ",
"z z ;.;.;.;.;.;.;.;.;.;.;.@.= } 0 ;.;.;.;.;.;.;.;.;.;.;.;.;.%.%.",
"z ;.;.;.;.;.;.;.;.;.;.;.$.=  .+.< ;.;.;.;.-.@.E V R ;.;.;.%.%.%.",
"z ;.;.;.;.;.;.;.;.;.;.;.1 / +.+.: ;.;.=.P 7 8 S 2 e ;.;.;.;.%.%.",
"z ;.;.;.;.;.;.;.;.;.;.R j +.+.+.t @.s * G X.+...= =.;.;.;.;.%.%.",
"z ;.;.;.;.;.;.;.;.;.;.7 } +.+.+.l $ H o.+.+.+.h E ;.;.;.;.;.%.%.",
"z ;.;.;.;.;.;.;.;.;.%.& L K +.+./ ..+.+.+.+.| < ;.;.;.;.;.;.%.%.",
"z z ;.;.;.;.;.;.;.%.0 w T T u +.+.+.+.+.+.+.t ) ;.;.;.;.;.;.%.%.",
"z z ;.;.;.;.;.;.-.0 n ' ' ' W k +.+.+.+.+.! i ;.;.;.;.;.;.;.%.%.",
"z ;.;.;.;.;.;.;.E O Z ' ' ' ' B J +.+.+.+.M 6 2 0 _ -.;.;.;.%.%.",
"z ;.;.;.;.;.;.[ % n B a v n ' ' m +.+.+.+.+.+.+.} j < ] ;.;.;.%.",
"z z ;.;.;.;.;.% ~ ! { L h C ' ' i +.+.+.+.+.+.+.+.S * @.;.;.;.%.",
"z z ;.;.;.;.;.c 0 I R c Y ' ' ' v X.+.+.+.+.+.+.h s *.;.;.;.%.%.",
"z ;.;.;.;.;.;.P d &.:.%.b ' ' ' B  .+.+.+.+.( , F ;.;.;.;.;.%.%.",
"z z ;.;.;.;.;.E 4 *.:.R F ' ' ' C | +.+.+.+.} = ] ;.;.;.;.;.;.%.",
"z z ;.;.;.;.;.i p N N b ' ' ' ' A ^ +.+.+.+.+. .2 @.;.;.;.;.;.%.",
"z ;.;.;.;.;.;.X w Q ' v B ' x 1 1 H +.+.+.+.+.+.| $ =.;.;.;.%.%.",
"z ;.;.;.;.;.;.R $ U ' ' ' ' w q > D +.+.+. .j j 9 > j ;.;.;.%.%.",
"z ;.;.;.;.;.;.$.+ q b ` U a r p g S +.+.+.O.* ) #.] =.;.;.;.%.%.",
"z ;.;.;.;.;.;.;.= ` Z f B Q ' ' Q h +.G ..+.l E ;.;.;.;.;.;.%.%.",
"z z ;.;.;.;.;.;.z A ' ' ' C p 3 < y ! . 2 2 t s ;.;.;.;.;.;.%.%.",
"z z ;.;.;.;.;.;.) 5 x = $ o I P V :.E $ ;.=.I I ;.;.;.;.;.;.;.%.",
"z z ;.;.;.;.;.;.=.N i   ) ; $.s _ #.$.@ z ;.;.;.;.;.;.;.;.;.;.%.",
"z z ;.;.;.;.;.;.;.[ = n 1 v p =.:.; p g q E ;.;.;.;.;.;.;.;.;.%.",
"z z ;.;.;.;.;.;.;.N r 0 O 1   P :.r g . i 3 ;.;.;.;.;.;.;.;.;.%.",
"z z ;.;.;.;.;.;.;.V # Z - q 0 q 7 < i 3 - _ ;.;.;.;.;.;.;.;.;.%.",
"z z ;.;.;.;.;.;.;.;.-.$.- @ p # 1 o # % = =.;.;.;.;.;.;.;.;.%.%.",
"z z ;.;.;.;.;.;.;.;.@.% + r q P ;.E O V < ;.;.;.;.;.;.;.%.%.%.%.",
";.;.;.;.;.;.;.;.%.%.$.= g g O ;.;.-.# < #.;.;.;.;.;.;.;.;.;.%.%.",
"%.%.%.%.%.;.%.;.;.;.%.#.V   V %.%.%.= P ;.%.%.;.;.%.%.%.%.%.%.%.",
";.%.%.%.%.%.%.%.%.%.%.%.%.%.%.%.%.%.%.%.%.%.%.%.%.%.%.%.%.%.%.%."
};
