/* XPM */
static char *result[] = {
/* columns rows colors chars-per-pixel */
"32 32 118 2 ",
"   c #0B0C0C",
".  c #131413",
"X  c #171917",
"o  c #171A19",
"O  c #1A1B1B",
"+  c #220C12",
"@  c #1E2020",
"#  c #232424",
"$  c #252925",
"%  c #232729",
"&  c #24292A",
"*  c #2C2D2C",
"=  c #2E322F",
"-  c #262E32",
";  c #2B2E30",
":  c #2C3235",
">  c #2E363B",
",  c #343434",
"<  c #343A35",
"1  c #373E39",
"2  c #3B3D3B",
"3  c #493238",
"4  c #3C423E",
"5  c #333D41",
"6  c #364045",
"7  c #3F4540",
"8  c #39444A",
"9  c #3E4C52",
"0  c #444444",
"q  c #434A45",
"w  c #4A4D46",
"e  c #464C49",
"r  c #4C4C4C",
"t  c #4B544C",
"y  c #455154",
"u  c #4F5752",
"i  c #445158",
"p  c #48565C",
"a  c #535454",
"s  c #535A53",
"d  c #555E58",
"f  c #5B5B5B",
"g  c #615F5F",
"h  c #566157",
"j  c #576359",
"k  c #5B645D",
"l  c #5F695F",
"z  c #4E5C65",
"x  c #5D6860",
"c  c #54646C",
"v  c #59686D",
"b  c #5A6C75",
"n  c #666464",
"m  c #626E65",
"M  c #616E6C",
"N  c #6C6D6C",
"B  c #657066",
"V  c #6A756B",
"C  c #6F7A6F",
"Z  c #6F7B71",
"A  c #62747C",
"S  c #727272",
"D  c #727D72",
"F  c #7A7B7B",
"G  c #778277",
"H  c #788479",
"J  c #7E8A7F",
"K  c #637580",
"L  c #657982",
"P  c #687C86",
"I  c #6F8690",
"U  c #708792",
"Y  c #738993",
"T  c #778E9A",
"R  c #7F97A2",
"E  c #7F98A4",
"W  c #848484",
"Q  c #838F83",
"!  c #858789",
"~  c #89898A",
"^  c #869386",
"/  c #8F9E90",
"(  c #949494",
")  c gray61",
"_  c #94A395",
"`  c #9DAC9D",
"'  c #849EA8",
"]  c #87A2B1",
"[  c #8BA4B1",
"{  c #8EA9B7",
"}  c #91ACBB",
"|  c #A4A4A4",
" . c #ADADAD",
".. c #A3B3A3",
"X. c #A7B8A8",
"o. c #AABBAA",
"O. c #B5B5B5",
"+. c gray73",
"@. c #CDA5AF",
"#. c #D5A4B2",
"$. c #9DBBCA",
"%. c #A3C0CF",
"&. c #A5C4D3",
"*. c #A9C8D6",
"=. c #A9C7D8",
"-. c #ACCCDC",
";. c #B3D3E4",
":. c #B5D7E8",
">. c #B7D8EA",
",. c #BBDDEE",
"<. c #C6C6C6",
"1. c #C9C9C9",
"2. c #D5D5D5",
"3. c #D9D9D9",
"4. c #E4E4E4",
"5. c #ECECEC",
"6. c #F5F5F5",
"7. c white",
/* pixels */
"n n n n n n n n n n n n n n n r g n n n n n n n n n n n n n n n ",
"n n n n n n n 6.6.n n n n n n   @ 4.6.6.6.6.6.6.n n 6.n n n n n ",
"n n 6.6.6.6.6.6.6.6.6.6.6.6.5.> T , 4.6.6.6.6.6.6.6.6.6.6.6.3.3.",
"n 6.6.6.6.6.F W  .1.6.6.6.6.4.5 ,.R 0 5.6.6.6.6.6.6.6.6.6.3.3.3.",
"n 6.6.6.6.4.X z b 5 0 | 5.6.O.z ,.,.A N 6.6.6.6.6.6.6.6.6.6.3.3.",
"n 6.6.6.6.6.+.5 >.,.$.z : ~ H I ,.,.:.5 3.6.6.6.6.6.6.6.6.6.3.3.",
"n 6.6.6.6.6.6.a ' >.,.,.=.K   ] ,.,.,.T S 6.6.6.6.6.6.6.6.6.3.3.",
"n 6.6.6.6.6.6.2., ,.,.,.,.,.E -.,.&.T U , 6.6.6.6.6.6.6.6.6.3.3.",
"n n 6.6.6.6.6.6.F K ,.,.,.,.,.,.&.y / Q < F 6.6.6.6.6.6.6.6.3.3.",
"n n 6.6.6.6.6.6.4.O ;.,.,.,.,.*.e X.o.o.X.u F 6.6.6.6.6.6.6.3.3.",
"n 6.6.6.6.3.! 2 ; 8 [ ,.,.,.,.S _ o.o.o.X.m . 3.6.6.6.6.6.6.3.3.",
"n 6.6.6.! & A %.,.,.,.,.,.,.;.s o.o.m M j J 7 0 2.6.6.6.6.6.6.3.",
"n n 6.6.W ; $.,.,.,.,.,.,.,.[ Y o.o.M P ] } ' P f 6.6.6.6.6.6.3.",
"n n 6.6.6.2.* Y ,.,.,.,.,.,.Y _ o.o.X.m ) ~ ! o O.6.6.6.6.6.3.3.",
"n 6.6.6.6.6.4.a c -.,.,.,.,.A ` o.o.X.l 7.7.#.3 3.6.6.6.6.6.3.3.",
"n n 6.6.6.6.6.W 6 -.,.,.,.,.b ..o.o.o.V 4.7.#.+ 4.6.6.6.6.6.6.3.",
"n n 6.6.6.6.W i ;.,.,.,.,.,.c X.o.o.o.` l F k q ~ 6.6.6.6.6.6.3.",
"n 6.6.6.6.<.% -.,.,.,.,.,.,.p e 0 H o.V G X.Q 0 w 6.6.6.6.6.3.3.",
"n 6.6.6.5.# 9 9 v z :.,.,.,.i q q l o.o.o.o.k r +.6.6.6.6.6.3.3.",
"n 6.6.6.6.<.+.3.N c ,.,.,.,.v h k < m _ X.k q # 6.6.6.6.6.6.3.3.",
"n 6.6.6.6.6.6.6.g { ,.$.' ,.e ..X.o._ H r _ ^ r 6.6.6.6.6.6.3.3.",
"n n 6.6.6.6.6.5.# c - , - L a 2 < m ^ X.o.o.s | 6.6.6.6.6.6.3.3.",
"n n 6.6.6.6.6.6.S | 5.<.. 3.5.S f x X o 1 D $ 3.6.6.6.6.6.6.6.3.",
"n n 6.6.6.6.6.6.6.6.4.% 2 5.W  .W ( w F   f ( 6.6.6.6.6.6.6.6.3.",
"n n 6.6.6.6.6.6.6.6.9 B t e S 7.| s w s G * 5.6.6.6.6.6.6.6.6.3.",
"n n 6.6.6.6.6.6.6.6.o 4 < k N 5.f   = * * 1 | 6.6.6.6.6.6.6.6.3.",
"n n 6.6.6.6.6.6.6.6.W % m d < # C X m * ( O O.6.6.6.6.6.6.6.6.3.",
"n n 6.6.6.6.6.6.6.6.@.$ O O . 0 . h X r 5.6.6.6.6.6.6.6.6.6.3.3.",
"n n 6.6.6.6.6.6.6.6.2.# m #  .6.r V $ # * 5.6.6.6.6.6.6.3.3.3.3.",
"6.6.6.6.6.6.6.6.3.3.6.( 4 , 6.6.2.  Z t * 5.6.6.6.6.6.6.6.6.3.3.",
"3.3.3.3.3.6.3.6.6.6.3.3.F N 3.3.3.1 # ( 6.3.3.6.6.3.3.3.3.3.3.3.",
"6.3.3.3.3.3.3.3.3.3.3.3.3.3.3.3.3.3.3.3.3.3.3.3.3.3.3.3.3.3.3.3."
};
