/* XPM */
static char *result[] = {
/* columns rows colors chars-per-pixel */
"32 32 107 2 ",
"   c #0B0D0E",
".  c #141415",
"X  c #171D1F",
"o  c #1B1D1D",
"O  c #1D2224",
"+  c #222423",
"@  c #252926",
"#  c #23292C",
"$  c #2B2C2B",
"%  c #262E32",
"&  c #2D3133",
"*  c #2C363A",
"=  c #2E383D",
"-  c #333334",
";  c #353936",
":  c #3A3B3B",
">  c #333D43",
",  c #3F4441",
"<  c #37444A",
"1  c #3A464D",
"2  c #434242",
"3  c #464C4D",
"4  c #4B4C4B",
"5  c #4A514C",
"6  c #434F52",
"7  c #445256",
"8  c #4E5454",
"9  c #44545B",
"0  c #48565A",
"q  c #535353",
"w  c #535953",
"e  c #545858",
"r  c #5C5C5C",
"t  c #57615A",
"y  c #475760",
"u  c #4A5960",
"i  c #505F62",
"p  c #596162",
"a  c #51646D",
"s  c #576B75",
"d  c #586D77",
"f  c #5A6F79",
"g  c #5C717B",
"h  c #666464",
"j  c #646E67",
"k  c #6C6D6C",
"l  c #6A766D",
"z  c #737575",
"x  c #73797A",
"c  c #7C7C7C",
"v  c #798575",
"b  c #667E89",
"n  c #687F8B",
"m  c #6C8591",
"M  c #6F8994",
"N  c #738D99",
"B  c #7A97A3",
"V  c #7B98A5",
"C  c #7F9CAA",
"Z  c #818484",
"A  c #818788",
"S  c #868C8B",
"D  c #8C8C8C",
"F  c #88978D",
"G  c #8B9A90",
"H  c gray58",
"J  c #9C9C9C",
"K  c #92A296",
"L  c #97A79B",
"P  c #809DAB",
"I  c #9CADA1",
"U  c #85A4B2",
"Y  c #8EAFBE",
"T  c #A4A4A4",
"R  c #A5ABAB",
"E  c #AAAAAA",
"W  c #A3B5A8",
"Q  c #A7B9AC",
"!  c #A8BAAD",
"~  c #B3B3B3",
"^  c #BEBEBE",
"/  c #92B3C3",
"(  c #97BACA",
")  c #9BBFD0",
"_  c #9EC3D4",
"`  c #B8C1C0",
"'  c #A0C6D7",
"]  c #A2C7D9",
"[  c #A4C9DC",
"{  c #A8CFE2",
"}  c #ABD3E5",
"|  c #ADD6E8",
" . c #AFD8EA",
".. c #B1DAED",
"X. c #C5C4C5",
"o. c #CDCDCD",
"O. c #D4D5D5",
"+. c #D3DDDC",
"@. c #D9D9D9",
"#. c #DBE5E3",
"$. c #E4E4E4",
"%. c #E3EDEB",
"&. c #EBEBEB",
"*. c #EDF7F6",
"=. c #EFF8F7",
"-. c #F5F5F5",
";. c #F0FAF9",
/* pixels */
"h h h h h h h h h h h h h h h h h h h h h h h h h h h h h h h h ",
"h h h h h h h -.-.r 4 h h h h h h D + &.-.-.-.-.h h -.h h h h h ",
"h h -.-.-.-.-.-.-.z O k -.-.-.-.$.+ > ^ -.-.-.-.-.-.-.-.-.-.@.@.",
"h -.-.-.-.-.-.-.-.E a y h $.-.-.r n s J -.-.-.-.-.-.-.-.-.@.@.@.",
"h -.-.-.-.-.-.-.-.o.> ..g $ &.E > ..P k -.-.-.&.J J -.-.-.-.@.@.",
"h -.-.-.-.-.-.-.-.O.% ....n 4 ; ( ..} & -.o.Z + u   -.-.-.-.@.@.",
"h -.-.-.-.&.-.-.-.$.& ......f = ......* : > M [ N z -.-.-.-.@.@.",
"h -.-.-.~ + & 2 k c # ........] ......d P | ....- O.-.-.-.-.@.@.",
"h h -.-.$.& U _ P b s ......................| ( - -.-.-.-.-.@.@.",
"h h -.-.-.@.+ P ..........} g i 0 n ..........b D -.-.-.-.-.@.@.",
"h -.-.-.-.-.@.+ U ......} 7 L ! ~ G 9 n / | ..> $ q D o.-.-.@.@.",
"h -.-.-.-.-.-.X.  N ..Y a F ! ! Q I 6 / | ......{ U # - -.-.-.@.",
"h h -.-.H q + % 7 C ../ U 9 K F l 3 ' ..........P X h O.-.-.-.@.",
"h h -.-.4 # ( ..............% N ] / ..........6 2 @.-.-.-.-.@.@.",
"h -.-.-.-.T & B { ..........| ................V # J -.-.-.-.@.@.",
"h h -.-.-.-.O.$ # / ............................[ > k -.-.-.-.@.",
"h h -.-.-.&.k 1 _ ............................n f > . o.-.-.-.@.",
"h -.-.-.$.q a |  .............................y h o.$.-.-.-.@.@.",
"h -.-.-.^ . X O 0 M ..........................P 8 -.-.-.-.-.@.@.",
"h -.-.-.-.-.-.-.R % .......... .....} ..) + > 1   $.-.-.-.-.@.@.",
"h -.-.-.-.-.-.-.~ < | C U .._ / ..B 3 m ] @ o.~ T -.-.-.-.-.@.@.",
"h h -.-.-.-.-.-.D . . e 3 } 8 x Y p A A u o $.-.-.-.-.-.-.-.@.@.",
"h h -.-.-.-.-.-.-.&.2 ` z 8 +.*.k #.R L A : &.-.-.-.-.-.-.-.-.@.",
"h h -.-.-.-.-.-.-.@.- ;.S ;.;.;.;.;.#.A #.- &.-.-.-.-.-.-.-.-.@.",
"h h -.-.-.-.-.-.-.T r %.S ;.;.;.;.;.=.k #.- o.-.-.-.-.-.-.-.-.@.",
"h h -.-.-.-.-.-.-.r ; ; z ;.;.=.;.;.=.8 j q r -.-.-.-.-.-.-.-.@.",
"h h -.-.-.-.-.-.O.@ 5 o e z w ; : h v 2 . j $ &.-.-.-.-.-.-.-.@.",
"h h -.-.-.-.-.-.O.+ $ H @ $ v 2 . 3 + + z t - &.-.-.-.-.-.-.@.@.",
"h h -.-.-.-.-.-.&.w q ^ $ o 5 . @ W ; r T $ c -.-.-.-.-.@.@.@.@.",
"-.-.-.-.-.-.-.-.@.@.-.-.J , Q @ : , & &.-.-.-.-.-.-.-.-.-.-.@.@.",
"@.@.@.@.@.-.@.-.-.-.@.@.$.r . k X.T @.@.-.@.@.-.-.@.@.@.@.@.@.@.",
"-.@.@.@.@.@.@.@.@.@.@.@.@.@.O.O.O.@.@.@.@.@.@.@.@.@.@.@.@.@.@.@."
};
